<svg xmlns="http://www.w3.org/2000/svg">
    <symbol id="actionNeeded" viewBox="0 0 4 16">
       <path d="M3.07865169,9.86516854 L3.5505618,2.98876404 L3.66292135,0 L0.337078652,0 L0.449438202,2.98876404 L0.921348315,9.86516854 L3.07865169,9.86516854 Z M2,15.3258427 C2.56928839,15.3258427 3.04494382,15.1273408 3.42696629,14.7303371 C3.80898876,14.3333333 4,13.8426966 4,13.258427 C4,12.659176 3.80898876,12.1610487 3.42696629,11.7640449 C3.04494382,11.3670412 2.56928839,11.1685393 2,11.1685393 C1.43071161,11.1685393 0.95505618,11.3670412 0.573033708,11.7640449 C0.191011236,12.1610487 0,12.659176 0,13.258427 C0,13.8426966 0.191011236,14.3333333 0.573033708,14.7303371 C0.95505618,15.1273408 1.43071161,15.3258427 2,15.3258427 Z"></path>
    </symbol>

    <symbol id="active" viewBox="0 0 24 24">
        <circle id="Oval" cx="12" cy="12" r="12"></circle>
    </symbol>

    <symbol id="api" viewBox="0 0 64 64">
        <path
            d="M33.5172,0.0002 C35.068098,0.0002 36.422283,1.04854802 36.8105208,2.55049033 L36.8105208,2.55049033 L37.966,7.034 L38.5038917,7.19446906 C39.9704525,7.65089889 41.3914086,8.24246679 42.7479764,8.96138823 L42.7479764,8.96138823 L43.239,9.228 L47.1595804,6.92361868 C48.4366004,6.17123432 50.0461663,6.33608264 51.1429965,7.31112157 L51.1429965,7.31112157 L51.2893068,7.44909322 L54.7003068,10.8600932 C55.7957177,11.9555042 56.0120407,13.6538872 55.2259239,14.9895774 L55.2259239,14.9895774 L52.914,18.914 L53.1801035,19.4015438 C53.8965383,20.7540808 54.4865524,22.1714008 54.942713,23.6349665 L54.942713,23.6349665 L55.103,24.171 L59.4496083,25.2958016 C60.8888175,25.6664658 61.9120129,26.9257641 61.9947806,28.3953747 L61.9947806,28.3953747 L62.0002,28.5882 L62.0002,33.4113735 C62.0030328,34.9632718 60.9541694,36.3203086 59.4517274,36.7083095 L59.4517274,36.7083095 L55.146,37.822 L54.9814343,38.38527 C54.5197049,39.8903749 53.9163785,41.3478642 53.1793107,42.7386293 L53.1793107,42.7386293 L52.898,43.254 L55.1517813,47.0805804 C55.9038825,48.3571197 55.7386716,49.9664493 54.7641958,51.0639057 L54.7641958,51.0639057 L54.6263068,51.2103068 L51.2138496,54.6227637 C50.1174396,55.7177571 48.4191442,55.9340689 47.0848929,55.1479653 L47.0848929,55.1479653 L43.256,52.894 L42.7589541,53.1662926 C41.3913278,53.8925913 39.9581308,54.4895752 38.4787678,54.9491842 L38.4787678,54.9491842 L37.932,55.112 L36.8103774,59.4504647 C36.4384536,60.8892942 35.1792695,61.9120511 33.7099821,61.9947829 L33.7099821,61.9947829 L33.5172,62.0002 L28.6932,62.0002 C27.1427418,62.0002 25.7885302,60.9511919 25.4017756,59.4495072 L25.4017756,59.4495072 L24.291,55.138 L23.73963,54.9760428 C22.2485015,54.5175232 20.8044222,53.9201729 19.4269323,53.1918669 L19.4269323,53.1918669 L18.921,52.916 L14.9964198,55.2290167 C13.7189538,55.9808657 12.1095037,55.8156336 11.013313,54.841191 L11.013313,54.841191 L10.8670932,54.7033068 L7.45509322,51.2913068 C6.35896396,50.1951775 6.14303503,48.4966467 6.92911551,47.1624354 L6.92911551,47.1624354 L9.234,43.241 L8.95740535,42.731404 C8.22641487,41.3500362 7.62765557,39.9039569 7.16905668,38.4118744 L7.16905668,38.4118744 L7.005,37.858 L2.55057088,36.7045415 C1.11230746,36.3337711 0.0884478947,35.074429 0.0056232491,33.6058804 L0.0056232491,33.6058804 L0.000199999999,33.4132 L0.000199999999,28.5882 C0.000199999999,27.0369481 1.04900817,25.6825817 2.54974915,25.2960707 L2.54974915,25.2960707 L7.05,24.132 L7.23944019,23.507569 C7.74042142,21.929979 8.39778441,20.406368 9.20212131,18.9595099 L9.20212131,18.9595099 L9.216,18.935 L6.84838328,14.9154198 C6.09625099,13.6374725 6.2611203,12.0277874 7.23612637,10.9322223 L7.23612637,10.9322223 L7.37409322,10.7860932 L10.7856363,7.37455045 C11.880767,6.27800305 13.579384,6.06206316 14.9155866,6.84848146 L14.9155866,6.84848146 L18.935,9.215 L19.4329196,8.94569208 C20.7983403,8.22429736 22.2283752,7.63191159 23.7045604,7.17611133 L23.7045604,7.17611133 L24.247,7.015 L25.4018585,2.55057088 C25.7726289,1.11230746 27.031971,0.0884478947 28.5005196,0.0056232491 L28.5005196,0.0056232491 L28.6932,0.0002 Z M33.5172,2.0002 L28.6932,2.0002 C28.055455,2.0002 27.497704,2.43241879 27.338363,3.05052059 L27.338363,3.05052059 L26.038363,8.07852059 C25.9473413,8.4305646 25.6723974,8.70545607 25.3203361,8.79641069 C23.2541263,9.3302135 21.2739862,10.150447 19.4371423,11.2335911 C19.1239291,11.4182856 18.7351457,11.418411 18.4218134,11.2339185 L18.4218134,11.2339185 L13.9009802,8.57201672 C13.350422,8.24798723 12.6511467,8.33688391 12.2003068,8.78830678 L12.2003068,8.78830678 L8.78784955,12.2007637 C8.33688391,12.6511467 8.24798723,13.350422 8.57186946,13.9007301 L8.57186946,13.9007301 L11.2338695,18.4207301 C11.4183417,18.7339587 11.418308,19.122623 11.2337813,19.4358196 C10.17071,21.2401677 9.36102309,23.1829821 8.82722714,25.2098733 C8.73506246,25.5598344 8.46101074,25.8326927 8.11065085,25.9233293 L8.11065085,25.9233293 L3.04960827,27.2325984 C2.4317879,27.3917163 2.0002,27.9490424 2.0002,28.5882 L2.0002,28.5882 L2.0002,33.4132 C2.0002,34.050945 2.43241879,34.608696 3.05089445,34.7681337 L3.05089445,34.7681337 L8.07089445,36.0681337 C8.42343419,36.1594289 8.69847294,36.4351545 8.78888852,36.7879208 C9.32397906,38.8756354 10.1531991,40.8781161 11.2520823,42.7373959 C11.4371411,43.0505101 11.4376014,43.4394131 11.2532845,43.7529646 L11.2532845,43.7529646 L8.65278132,48.1768196 C8.32901528,48.7263468 8.41792309,49.4257095 8.86930678,49.8770932 L8.86930678,49.8770932 L12.2813068,53.2890932 C12.7322206,53.7400071 13.4319087,53.8291263 13.981678,53.5055612 L13.981678,53.5055612 L18.407678,50.8985612 C18.7212634,50.7138533 19.1104392,50.7140956 19.4237944,50.8991938 C21.2758449,51.9931957 23.2761161,52.8205279 25.3639072,53.3566213 C25.7169773,53.447281 25.992746,53.7228789 26.0836244,54.0758928 L26.0836244,54.0758928 L27.3385984,58.9507917 C27.4976952,59.5685299 28.0549574,60.0002 28.6932,60.0002 L28.6932,60.0002 L33.5172,60.0002 C34.1564201,60.0002 34.7141465,59.5684337 34.8740415,58.9498619 L34.8740415,58.9498619 L36.1410415,54.0498619 C36.2319239,53.6983832 36.5061563,53.4237668 36.8575074,53.3323928 C38.9280438,52.7939192 40.9131091,51.9670701 42.7523239,50.8769521 C43.0657852,50.691161 43.4554929,50.6905797 43.7695071,50.8754347 L43.7695071,50.8754347 L48.0998196,53.4246187 C48.6488602,53.748098 49.3486351,53.6589677 49.8000932,53.2080932 L49.8000932,53.2080932 L53.2116363,49.7965504 C53.6629677,49.3446351 53.752098,48.6448602 53.4284859,48.0955941 L53.4284859,48.0955941 L50.8794859,43.7665941 C50.6946194,43.4526329 50.6951397,43.0629727 50.8808441,42.7495063 C51.9891214,40.8787495 52.8247329,38.8600588 53.3633407,36.7525879 C53.4535898,36.3994605 53.7288184,36.1234021 54.0816726,36.0320905 L54.0816726,36.0320905 L58.9511564,34.7719654 C59.5696745,34.612235 60.0013682,34.0537026 60.0002,33.4132 L60.0002,33.4132 L60.0002,28.5882 C60.0002,27.9490424 59.5686121,27.3917163 58.9496897,27.2323139 L58.9496897,27.2323139 L54.0416897,25.9623139 C53.6908208,25.8715227 53.4165382,25.597995 53.3247802,25.2473777 C52.788499,23.1981885 51.9715708,21.2354861 50.8972104,19.4168225 C50.7121266,19.103515 50.7118453,18.7143973 50.8964761,18.4008226 L50.8964761,18.4008226 L53.5023833,13.9749802 C53.8261263,13.4249087 53.7370071,12.7252206 53.2860932,12.2743068 L53.2860932,12.2743068 L49.8750932,8.86330678 C49.4237095,8.41192309 48.7243468,8.32301528 48.1739646,8.64728449 L48.1739646,8.64728449 L43.7509646,11.2472845 C43.4374017,11.4316081 43.0484829,11.4311406 42.7353641,11.2460635 C40.9107283,10.1675649 38.9430381,9.34839774 36.8906862,8.81279328 C36.5394819,8.72113913 36.2655156,8.44637802 36.1748792,8.09490967 L36.1748792,8.09490967 L34.8740226,3.05046474 C34.7141465,2.43196629 34.1564201,2.0002 33.5172,2.0002 L33.5172,2.0002 Z M31.106,13.0352 C41.0471419,13.0352 49.106,21.0940581 49.106,31.0352 C49.106,40.9755359 41.0467336,49.0352 31.106,49.0352 C21.1652664,49.0352 13.106,40.9755359 13.106,31.0352 C13.106,21.0940581 21.1648581,13.0352 31.106,13.0352 Z M31.106,15.0352 C22.2694276,15.0352 15.106,22.1986276 15.106,31.0352 C15.106,39.8709885 22.269858,47.0352 31.106,47.0352 C39.942142,47.0352 47.106,39.8709885 47.106,31.0352 C47.106,22.1986276 39.9425724,15.0352 31.106,15.0352 Z M24.246,25.228 L28.08,37 L25.884,37 L24.966,33.814 L21.006,33.814 L20.088,37 L17.964,37 L21.798,25.228 L24.246,25.228 Z M33.498,25.228 L33.88068,25.2352 C34.38276,25.2544 34.8522,25.312 35.289,25.408 C35.835,25.528 36.306,25.732 36.702,26.02 C37.098,26.308 37.41,26.683 37.638,27.145 C37.866,27.607 37.98,28.18 37.98,28.864 C37.98,29.512 37.866,30.076 37.638,30.556 C37.41,31.036 37.095,31.435 36.693,31.753 C36.291,32.071 35.817,32.305 35.271,32.455 C34.725,32.605 34.134,32.68 33.498,32.68 L33.498,32.68 L31.626,32.68 L31.626,37 L29.538,37 L29.538,25.228 L33.498,25.228 Z M42.282,25.228 L42.282,37 L40.194,37 L40.194,25.228 L42.282,25.228 Z M23.022,26.848 L22.95,26.848 L22.698,27.83575 L22.698,27.83575 L22.446,28.819 C22.278,29.473 22.098,30.112 21.906,30.736 L21.906,30.736 L21.492,32.176 L24.498,32.176 L24.084,30.736 L23.895,30.106 C23.771,29.682 23.651,29.25 23.535,28.81 C23.361,28.15 23.19,27.496 23.022,26.848 L23.022,26.848 Z M33.336,26.902 L31.626,26.902 L31.626,31.006 L33.336,31.006 C35.064,31.006 35.928,30.292 35.928,28.864 C35.928,28.12 35.712,27.607 35.28,27.325 C34.848,27.043 34.2,26.902 33.336,26.902 L33.336,26.902 Z"
            id="Combined-Shape"
        ></path>
    </symbol>

    <symbol id="approval" viewBox="0 0 64 64">
        <path
            d="M53,0 C53.5522847,0 54,0.44771525 54,1 L54,1 L54,13 C54,13.0047611 53.9999667,13.0095144 53.9999004,13.0142597 L54.0018577,22.5760385 C58.8052292,25.5799841 62,30.9166946 62,37 C62,46.3892847 54.3892847,54 45,54 C38.1066756,54 32.1720082,49.89779 29.5038978,44.00127 L2.98427949e-13,43.9999613 L0,1 C0,0.44771525 0.44771525,0 1,0 L1,0 Z M45,22 C36.7152847,22 30,28.7152847 30,37 L30.0013961,36.7102834 C30.0286849,38.7643527 30.4556443,40.7577626 31.2490968,42.6067902 L31.2490968,42.6067902 L31.8474614,44.0011931 L31.7309294,44.001941 C34.2461138,48.7588103 39.2443074,52 45,52 C53.2847153,52 60,45.2847153 60,37 C60,28.7152847 53.2847153,22 45,22 Z M52.6643638,32.2525907 C53.0453941,32.5912842 53.1063847,33.1559081 52.8249223,33.5654341 L52.7474093,33.6643638 L44.7474093,42.6643638 C44.3924567,43.0636855 43.7933569,43.1090688 43.3838354,42.7877681 L43.2928932,42.7071068 L38.2928932,37.7071068 C37.9023689,37.3165825 37.9023689,36.6834175 38.2928932,36.2928932 C38.6533772,35.9324093 39.2206082,35.9046797 39.6128994,36.2097046 L39.7071068,36.2928932 L43.957,40.542 L51.2525907,32.3356362 C51.6195087,31.9228534 52.2515811,31.8856727 52.6643638,32.2525907 Z M52,14 L2,14 L2,42 L28.7476363,42.0017165 C28.2616009,40.4203894 28,38.7407618 28,37 C28,36.9044017 28.000789,36.8089878 28.0023608,36.7137644 L28,36.5 C28,26.8350169 35.8350169,19 45.5,19 C47.6435262,19 49.7329352,19.3861788 51.6898284,20.1263934 L51.6898284,20.1263934 L52.001,20.249 L52,14 Z M52,2 L2,2 L2,12 L52,12 L52,2 Z M7,5 C8.10428475,5 9,5.89571525 9,7 C9,8.10428475 8.10428475,9 7,9 C5.89571525,9 5,8.10428475 5,7 C5,5.89571525 5.89571525,5 7,5 Z M14,5 C15.1042847,5 16,5.89571525 16,7 C16,8.10428475 15.1042847,9 14,9 C12.8957153,9 12,8.10428475 12,7 C12,5.89571525 12.8957153,5 14,5 Z M21,5 C22.1042847,5 23,5.89571525 23,7 C23,8.10428475 22.1042847,9 21,9 C19.8957153,9 19,8.10428475 19,7 C19,5.89571525 19.8957153,5 21,5 Z"
            id="Combined-Shape"
        ></path>
    </symbol>

    <symbol id="arrow-dropdown" viewBox="0 0 9 5">
        <path
            d="M4.3894737,3.5409455 L1.02426407,0.175735927 C0.789949488,-0.0585786425 0.410050508,-0.0585786425 0.175735927,0.175735927 C-0.0585786425,0.410050507 -0.0585786425,0.789949498 0.175735927,1.0242641 L3.6704728,4.5190009 C4.0732084,4.9217365 4.705739,4.9217365 5.1084746,4.5190009 L8.6032114,1.0242641 C8.837526,0.789949498 8.837526,0.410050507 8.6032114,0.175735927 C8.3688969,-0.0585786425 7.9889979,-0.0585786425 7.7546833,0.175735927 L4.3894737,3.5409455 Z"
            id="Shape"
        ></path>
    </symbol>

    <symbol id="arrow-dropup" viewBox="0 0 9 5">
        <path
            d="M4.3894737,3.5409455 L1.02426407,0.175735927 C0.789949488,-0.0585786425 0.410050508,-0.0585786425 0.175735927,0.175735927 C-0.0585786425,0.410050507 -0.0585786425,0.789949498 0.175735927,1.0242641 L3.6704728,4.5190009 C4.0732084,4.9217365 4.705739,4.9217365 5.1084746,4.5190009 L8.6032114,1.0242641 C8.837526,0.789949498 8.837526,0.410050507 8.6032114,0.175735927 C8.3688969,-0.0585786425 7.9889979,-0.0585786425 7.7546833,0.175735927 L4.3894737,3.5409455 Z"
            id="Shape"
            transform="translate(4.389474, 2.410526) rotate(-180.000000) translate(-4.389474, -2.410526) "
        ></path>
    </symbol>

    <symbol id="arrow-right" viewBox="0 0 27 11">
        <path
            d="M20.5705585,0.178622274 L20.6690039,0.256749654 L26.4948471,5.50056372 L20.6689256,10.7433379 C20.2583961,11.1127754 19.626108,11.0794637 19.2566706,10.6689342 C18.9156515,10.2899839 18.9178032,9.72207953 19.2430446,9.34637941 L19.3310744,9.25667922 L22.392,6.5 L1,6.50000858 C0.44771525,6.50000858 -6.39488462e-14,6.05229333 -6.39488462e-14,5.50000858 C-6.39488462e-14,4.98717274 0.38604019,4.56450142 0.883378875,4.50673631 L1,4.50000858 L22.394,4.5 L19.3309961,1.74326751 C18.9520818,1.40220847 18.8946073,0.837215829 19.1786137,0.429450034 L19.2567411,0.331004723 C19.5978001,-0.0479096509 20.1627928,-0.105384119 20.5705585,0.178622274 Z"
            id="Graphics-/-arrow-right"
            fill-rule="nonzero"
        ></path>
    </symbol>

    <symbol id="bag" viewBox="0 0 64 64">
        <path
            d="M55,0 C55.5522847,0 56,0.44771525 56,1 L56,1 L56,12 L57,12 C57.5128358,12 57.9355072,12.3860402 57.9932723,12.8833789 L57.9932723,12.8833789 L58,13 L58,61 C58,61.5522847 57.5522847,62 57,62 L57,62 L1,62 C0.44771525,62 0,61.5522847 0,61 L0,61 L0,13 C0,12.4477153 0.44771525,12 1,12 L1,12 L2,12 L2,1 C2,0.487164161 2.38604019,0.0644928393 2.88337887,0.00672773133 L2.88337887,0.00672773133 L3,0 Z M56,15 L2,15 L2,60 L56,60 L56,15 Z M39,22 C39.5522847,22 40,22.4477153 40,23 C40,29.0749549 35.0746147,34 29,34 C22.9247153,34 18,29.0752847 18,23 C18,22.4477153 18.4477153,22 19,22 C19.5522847,22 20,22.4477153 20,23 C20,27.9707153 24.0292847,32 29,32 C33.9700761,32 38,27.9703544 38,23 C38,22.4477153 38.4477153,22 39,22 Z M51.366,2 L6.633,2 L13.5155808,6.1433794 C14.1237602,6.50952825 14.1589132,7.36117649 13.6217254,7.78363486 L13.5142958,7.85759293 L4.942,13 L53.057,13 L44.4853042,7.85759293 C43.8765765,7.49235629 43.8401467,6.64076171 44.3767006,6.21749844 L44.4840192,6.1433794 L51.366,2 Z M54,2.748 L46.94,6.998 L54,11.234 L54,2.748 Z M4,2.748 L4,11.233 L11.059,6.998 L4,2.748 Z"
            id="Combined-Shape"
        ></path>
    </symbol>

    <symbol id="check" viewBox="0 0 16 14">
        <path
            d="M4.55013494,13.6081269 C5.11614309,14.1708298 6.0420928,14.1210731 6.5451112,13.5004715 L15.6966261,2.21384423 C16.1672498,1.63304793 16.0808638,0.77813748 15.5031575,0.30499656 C14.9254513,-0.16814435 14.0750893,-0.0812963003 13.6044656,0.4995 L5.40589607,10.6390093 L2.2987003,7.5540944 C1.76868631,7.0266734 0.913825029,7.0321014 0.390110019,7.5649504 C-0.134504851,8.0977993 -0.129105721,8.9572331 0.400908269,9.4837494 L4.55013494,13.6090315"
            id="0-•-Icons-/-Check"
        ></path>
    </symbol>

    <defs></defs>
    <symbol id="clear" viewBox="0 0 24 24">
        <path
            d="M12,4.5 C7.8525,4.5 4.5,7.8525 4.5,12 C4.5,16.1475 7.8525,19.5 12,19.5 C16.1475,19.5 19.5,16.1475 19.5,12 C19.5,7.8525 16.1475,4.5 12,4.5 Z M15.75,14.6925 L14.6925,15.75 L12,13.0575 L9.3075,15.75 L8.25,14.6925 L10.9425,12 L8.25,9.3075 L9.3075,8.25 L12,10.9425 L14.6925,8.25 L15.75,9.3075 L13.0575,12 L15.75,14.6925 Z"
            id="path-1"
        ></path>
    </symbol>

    <symbol id="code" viewBox="0 0 64 64">
        <path
            d="M62,49 C62,49.5522847 61.5522847,50 61,50 L61,50 L1,50 C0.44771525,50 0,49.5522847 0,49 L0,49 L0,1 C0,0.44771525 0.44771525,0 1,0 L1,0 L61,0 C61.5522847,0 62,0.44771525 62,1 L62,1 Z M60,15 L2,15 L2,48 L60,48 L60,15 Z M35.3713907,20.0715233 C35.8475468,20.2619858 36.0966155,20.7773913 35.9655421,21.2606121 L35.9284767,21.3713907 L27.9284767,41.3713907 C27.7233633,41.8841742 27.1413928,42.1335901 26.6286093,41.9284767 C26.1524532,41.7380142 25.9033845,41.2226087 26.0344579,40.7393879 L26.0715233,40.6286093 L34.0715233,20.6286093 C34.2766367,20.1158258 34.8586072,19.8664099 35.3713907,20.0715233 Z M19.6585046,22.2474233 C20.0421692,22.5831298 20.107569,23.14726 19.8293145,23.5589723 L19.7525767,23.6585046 L13.328,31 L19.7525767,38.3414954 C20.0882832,38.72516 20.0782197,39.2929792 19.7477755,39.6641116 L19.6585046,39.7525767 C19.27484,40.0882832 18.7070208,40.0782197 18.3358884,39.7477755 L18.2474233,39.6585046 L11.2474233,31.6585046 C10.945017,31.3128975 10.9198165,30.8110564 11.1718217,30.4394103 L11.2474233,30.3414954 L18.2474233,22.3414954 C18.6111054,21.9258588 19.242868,21.8837413 19.6585046,22.2474233 Z M43.5674513,22.1763027 L43.6641116,22.2522245 L43.7525767,22.3414954 L50.7525767,30.3414954 C51.054983,30.6871025 51.0801835,31.1889436 50.8281783,31.5605897 L50.7525767,31.6585046 L43.7525767,39.6585046 C43.3888946,40.0741412 42.757132,40.1162587 42.3414954,39.7525767 C41.9578308,39.4168702 41.892431,38.85274 42.1706855,38.4410277 L42.2474233,38.3414954 L48.671,31 L42.2474233,23.6585046 C41.9117168,23.27484 41.9217803,22.7070208 42.2522245,22.3358884 L42.3414954,22.2474233 C42.6931879,21.9396923 43.1996216,21.9225043 43.5674513,22.1763027 Z M60,2 L2,2 L2,13 L60,13 L60,2 Z M7,5 C8.10428475,5 9,5.89571525 9,7 C9,8.10428475 8.10428475,9 7,9 C5.89571525,9 5,8.10428475 5,7 C5,5.89571525 5.89571525,5 7,5 Z M14,5 C15.1042847,5 16,5.89571525 16,7 C16,8.10428475 15.1042847,9 14,9 C12.8957153,9 12,8.10428475 12,7 C12,5.89571525 12.8957153,5 14,5 Z M21,5 C22.1042847,5 23,5.89571525 23,7 C23,8.10428475 22.1042847,9 21,9 C19.8957153,9 19,8.10428475 19,7 C19,5.89571525 19.8957153,5 21,5 Z"
            id="Combined-Shape"
        ></path>
    </symbol>

    <symbol id="coin" viewBox="-2 -2  48 48">
        <path
            d="M26.5,12 C34.5083347,12 41,18.4916653 41,26.5 C41,34.5083347 34.5083347,41 26.5,41 C18.4916653,41 12,34.5083347 12,26.5 C12,25.9477153 12.4477153,25.5 13,25.5 C13.5522847,25.5 14,25.9477153 14,26.5 C14,33.4037653 19.5962347,39 26.5,39 C33.4037653,39 39,33.4037653 39,26.5 C39,19.5962347 33.4037653,14 26.5,14 C25.9477153,14 25.5,13.5522847 25.5,13 C25.5,12.4477153 25.9477153,12 26.5,12 Z"
            id="Stroke-1"
        ></path>
        <path
            d="M13.5,-1 C5.49166525,-1 -1,5.49166525 -1,13.5 C-1,21.5083347 5.49166525,28 13.5,28 C21.5083347,28 28,21.5083347 28,13.5 C28,5.49166525 21.5083347,-1 13.5,-1 Z M13.5,1 C20.4037653,1 26,6.59623475 26,13.5 C26,20.4037653 20.4037653,26 13.5,26 C6.59623475,26 1,20.4037653 1,13.5 C1,6.59623475 6.59623475,1 13.5,1 Z"
            id="Stroke-3"
        ></path>
        <path
            d="M13.5003833,6.00000007 C15.6797562,6.00083553 17.5613872,7.48730281 17.9362577,9.54829029 C18.0350905,10.0916599 17.6747223,10.6122678 17.1313527,10.7111007 C16.5879831,10.8099335 16.0673752,10.4495653 15.9685423,9.90619566 C15.7707886,8.81897236 14.7346992,8.00047339 13.5,8.00000007 C12.0187853,8.00000007 11,8.84291834 11,9.99950914 C11,10.923648 11.8421189,11.5782238 13.4711278,11.9679272 L13.7091903,12.0217978 C16.3093302,12.5780286 18,13.8076354 18,15.9998364 C18,18.3541358 16.0110524,20.0000001 13.5,20.0000001 C11.0289947,20.0000001 9,18.1026686 9,15.7275702 C9,15.1752855 9.44771525,14.7275702 10,14.7275702 C10.5522847,14.7275702 11,15.1752855 11,15.7275702 C11,16.9669954 12.1046888,18.0000001 13.5,18.0000001 C14.9813009,18.0000001 16,17.1570214 16,15.9998364 C16,15.0753306 15.1583587,14.4211906 13.5289374,14.0314299 L13.2908097,13.9775477 C10.6912103,13.4214326 9,12.1912218 9,9.99950914 C9,7.6457221 10.9890864,6.00000007 13.5003833,6.00000007 Z"
            id="Stroke-5"
        ></path>
        <path
            d="M13,18.1118427 C13.5128358,18.1118427 13.9355072,18.4978828 13.9932723,18.9952215 L14,19.1118427 L14,21 C14,21.5522847 13.5522847,22 13,22 C12.4871642,22 12.0644928,21.6139598 12.0067277,21.1166211 L12,21 L12,19.1118427 C12,18.5595579 12.4477153,18.1118427 13,18.1118427 Z M13,4 C13.5128358,4 13.9355072,4.38604019 13.9932723,4.88337887 L14,5 L14,6.88749062 C14,7.43977537 13.5522847,7.88749062 13,7.88749062 C12.4871642,7.88749062 12.0644928,7.50145043 12.0067277,7.00411175 L12,6.88749062 L12,5 C12,4.44771525 12.4477153,4 13,4 Z"
            id="Stroke-7"
        ></path>
        <path
            d="M26.5,32 C27.0128358,32 27.4355072,32.3860402 27.4932723,32.8833789 L27.5,33 L27.5,35 C27.5,35.5522847 27.0522847,36 26.5,36 C25.9871642,36 25.5644928,35.6139598 25.5067277,35.1166211 L25.5,35 L25.5,33 C25.5,32.4477153 25.9477153,32 26.5,32 Z"
            id="Stroke-9"
        ></path>
        <path
            d="M23.6069143,25.5108251 C23.8770782,25.0291302 24.4865801,24.8576505 24.9682749,25.1278143 C25.4164937,25.3792027 25.8967512,25.5716238 26.4051664,25.7022528 L26.7135635,25.7731926 C29.3008291,26.3387868 31,27.6288213 31,29.8754019 C31,32.2916218 29.01797,34 26.5,34 C24.0200841,34 22,32.0320661 22,29.5903556 C22,29.0380708 22.4477153,28.5903556 23,28.5903556 C23.5522847,28.5903556 24,29.0380708 24,29.5903556 C24,30.9156202 25.1131159,32 26.5,32 C27.9739333,32 29,31.1155987 29,29.8754019 C29,28.8734762 28.1479958,28.1810804 26.5360487,27.7846614 L26.3006108,27.7300421 C25.4885241,27.5648029 24.7089619,27.2754654 23.9899251,26.8721857 C23.5082302,26.6020218 23.3367505,25.9925199 23.6069143,25.5108251 Z"
            id="Stroke-11"
        ></path>
        <path
            d="M28.2929309,20.2928555 C28.683476,19.9023521 29.316641,19.9023858 29.7071445,20.2929309 C30.3870403,20.9728992 30.8358583,21.870458 30.9880454,22.8458365 C31.0731875,23.3915189 30.6998459,23.9029032 30.1541635,23.9880454 C29.6084811,24.0731875 29.0970968,23.6998459 29.0119546,23.1541635 C28.9244413,22.5932836 28.6698089,22.0840627 28.2928555,21.7070691 C27.9023521,21.316524 27.9023858,20.683359 28.2929309,20.2928555 Z"
            id="Stroke-13"
        ></path>
    </symbol>

    <symbol id="complete" viewBox="0 0 24 24">
        <path
            d="M12,0 C18.627417,0 24,5.372583 24,12 C24,18.627417 18.627417,24 12,24 C5.372583,24 0,18.627417 0,12 C0,5.372583 5.372583,0 12,0 Z M16.6609705,6.42814286 L9.63362521,15.1191508 L6.97031454,12.474938 C6.51601684,12.0228629 5.7832786,12.0275155 5.33438002,12.4842432 C4.88471013,12.9409708 4.88933795,13.6776284 5.34363566,14.128928 L8.90011567,17.6648842 C9.38526551,18.1464256 10.1789367,18.103777 10.6100953,17.5718327 L18.454251,7.89758077 C18.8576427,7.39975536 18.7835975,6.66697498 18.2884207,6.26142563 C17.7932439,5.85587627 17.0643622,5.93031745 16.6609705,6.42814286 Z"
            id="Combined-Shape"
        ></path>
    </symbol>

    <symbol id="copy" viewBox="0 0 16 16">
        <path
            d="M13.6,3.8 L12.2,3.8 L12.2,2.4 C12.1991513,1.62715318 11.5728468,1.00084873 10.8,1 L2.4,1 C1.62715318,1.00084873 1.00084873,1.62715318 1,2.4 L1,10.8 C1.00084873,11.5728468 1.62715318,12.1991513 2.4,12.2 L3.8,12.2 L3.8,13.6 C3.80084873,14.3728468 4.42715318,14.9991513 5.2,15 L13.6,15 C14.3728468,14.9991513 14.9991513,14.3728468 15,13.6 L15,5.2 C14.9991513,4.42715318 14.3728468,3.80084873 13.6,3.8 Z M1.93333333,10.8 L1.93333333,2.4 C1.9334878,2.14233112 2.14233112,1.9334878 2.4,1.93333333 L10.8,1.93333333 C11.0576689,1.9334878 11.2665122,2.14233112 11.2666667,2.4 L11.2666667,10.8 C11.2665122,11.0576689 11.0576689,11.2665122 10.8,11.2666667 L2.4,11.2666667 C2.14233112,11.2665122 1.9334878,11.0576689 1.93333333,10.8 Z M14.0666667,13.6 C14.0665122,13.8576689 13.8576689,14.0665122 13.6,14.0666667 L5.2,14.0666667 C4.94233112,14.0665122 4.7334878,13.8576689 4.73333333,13.6 L4.73333333,12.2 L10.8,12.2 C11.5728468,12.1991513 12.1991513,11.5728468 12.2,10.8 L12.2,4.73333333 L13.6,4.73333333 C13.8576689,4.7334878 14.0665122,4.94233112 14.0666667,5.2 L14.0666667,13.6 Z"
            id="Shape"
        ></path>
    </symbol>

    <symbol id="double-arrow" viewBox="0 0 11 11">
        <path
            d="M9.84939236,0.321506076 C10.1876447,0.091833044 10.4639757,0.091833044 10.6783854,0.321506076 C10.8927951,0.551179109 10.8927951,0.835828993 10.6783854,1.17545573 L6.50379774,5.5 L10.8972982,9.96158854 C10.9646117,10.3493899 10.8916407,10.6284879 10.6783854,10.7988824 C10.4651301,10.9692769 10.1887991,10.9692769 9.84939236,10.7988824 L5.09738522,5.83759166 C5.00282635,5.75163646 4.95554691,5.6391059 4.95554691,5.5 C4.95554691,5.3608941 5.00505327,5.24864802 5.10406598,5.16326177 L9.84939236,0.321506076 Z"
            id="Path-2"
        ></path>
        <path
            d="M4.89384545,0.321506076 C5.23209776,0.091833044 5.50842878,0.091833044 5.7228385,0.321506076 C5.93724823,0.551179109 5.93724823,0.835828993 5.7228385,1.17545573 L1.54825083,5.5 L5.94175126,9.96158854 C6.00906475,10.3493899 5.93609383,10.6284879 5.7228385,10.7988824 C5.50958318,10.9692769 5.23325216,10.9692769 4.89384545,10.7988824 L0.141838312,5.83759166 C0.0472794372,5.75163646 0,5.6391059 0,5.5 C0,5.3608941 0.0495063562,5.24864802 0.148519069,5.16326177 L4.89384545,0.321506076 Z"
            id="Path-2-Copy"
        ></path>
    </symbol>

    <symbol id="email" viewBox="0 0 30 30">
        <path
            d="M14.469,-5.32907052e-15 C22.460008,-5.32907052e-15 28.938,6.47799196 28.938,14.469 C28.938,22.460008 22.460008,28.938 14.469,28.938 C6.47799196,28.938 -1.68716603e-13,22.460008 -1.68716603e-13,14.469 C-1.68716603e-13,6.47799196 6.47799196,-5.32907052e-15 14.469,-5.32907052e-15 Z M14.469,2 C7.58256145,2 2,7.58256145 2,14.469 C2,21.3554385 7.58256145,26.938 14.469,26.938 C21.3554385,26.938 26.938,21.3554385 26.938,14.469 C26.938,7.58256145 21.3554385,2 14.469,2 Z M19.822,9.279 C20.6875858,9.26347854 21.4454929,9.85694978 21.638,10.701 C21.6649926,10.8106744 21.6794187,10.9230639 21.681,11.036 L21.681,12.68 L21.681,12.68 C21.681,14.547 21.687,16.475 21.675,18.371 C21.6775738,19.1867463 21.1064655,19.8919627 20.308,20.059 C20.0911303,20.1004947 19.8708036,20.121255 19.65,20.121 C17.753,20.131 15.671,20.132 13.098,20.132 L9.116,20.132 C8.18115395,20.1690554 7.36702178,19.4994285 7.223,18.575 C7.21693526,18.5396758 7.21458912,18.5038133 7.216,18.468 L7.216,11.073 L7.216,11.073 C7.21207829,10.5480523 7.44769069,10.049953 7.856,9.72 C8.18313134,9.4356408 8.60359824,9.2818375 9.037,9.288 L17.553,9.288 C18.428,9.288 19.143,9.288 19.803,9.279 L19.822,9.279 Z M19.429,11.099 C19.3071454,11.1001819 19.1901421,11.1469119 19.101,11.23 L15.081,14.883 L14.889,15.058 L14.639,15.288 L14.45,15.458 L14.429,15.438 L14.404,15.417 L11.082,12.402 L9.802,11.242 C9.70821669,11.1534747 9.58493316,11.1028785 9.456,11.1 C9.33787834,11.0994674 9.22512688,11.1492963 9.146,11.237 C9.0591728,11.3265873 9.01383824,11.4484466 9.021,11.573 C9.03399644,11.7011806 9.0959706,11.8193972 9.194,11.903 L10.494,13.088 L11.394,13.902 L12.137,14.58 L12.128,14.59 C12.11,14.61 12.095,14.627 12.079,14.643 L11.016,15.704 L10.98,15.74 L9.326,17.388 L9.28,17.434 C9.22523345,17.4860035 9.17348248,17.5410933 9.125,17.599 C9.024291,17.7195746 8.99515126,17.8845443 9.04845897,18.032324 C9.10176668,18.1801037 9.22950966,18.288482 9.384,18.317 C9.4145851,18.3234507 9.44574269,18.3268009 9.477,18.327 C9.61156119,18.322872 9.7384968,18.2635631 9.828,18.163 L11.838,16.155 L12.794,15.188 L12.801,15.188 L13.222,15.569 L14.09,16.355 C14.1838729,16.4542963 14.3116767,16.5146282 14.448,16.524 C14.5847157,16.5142236 14.7128044,16.4535688 14.807,16.354 L15.485,15.742 L15.493,15.734 L16.116,15.171 L16.139,15.206 C16.1513792,15.2275809 16.166138,15.2477065 16.183,15.266 C17.331,16.415 18.208,17.293 19.029,18.113 C19.0706091,18.1565955 19.115399,18.1970401 19.163,18.234 C19.2404121,18.2918842 19.3343414,18.3234276 19.431,18.324 C19.6334108,18.3240815 19.809889,18.1863625 19.859,17.99 C19.9032639,17.812808 19.8408705,17.6260177 19.699,17.511 C19.071,16.883 18.592,16.404 18.145,15.956 L17.066,14.876 L16.759,14.568 L16.78,14.554 C16.7941561,14.5455222 16.8075408,14.5358183 16.82,14.525 L17.38,14.017 L17.399,14 L19.116,12.439 L19.285,12.288 C19.442,12.147 19.602,12.004 19.749,11.853 C19.8332628,11.7691226 19.8797124,11.6545332 19.8777035,11.5356579 C19.8755612,11.4167827 19.8251396,11.3038847 19.738,11.223 C19.6547544,11.1435056 19.5441051,11.0991027 19.429,11.099 Z"
            id="Combined-Shape"
        ></path>
    </symbol>

    <symbol id="facebook" viewBox="0 0 30 30">
        <path
            d="M14.469,-2.66453526e-14 C22.460008,-2.66453526e-14 28.938,6.47799196 28.938,14.469 C28.938,22.460008 22.460008,28.938 14.469,28.938 C6.47799196,28.938 2.57571742e-13,22.460008 2.57571742e-13,14.469 C2.57571742e-13,6.47799196 6.47799196,-2.66453526e-14 14.469,-2.66453526e-14 Z M14.469,2 C7.58256145,2 2,7.58256145 2,14.469 C2,21.3554385 7.58256145,26.938 14.469,26.938 C21.3554385,26.938 26.938,21.3554385 26.938,14.469 C26.938,7.58256145 21.3554385,2 14.469,2 Z M17.441,8.77 L17.441,10.913 L16.127,10.913 C15.667,10.913 15.567,11.106 15.567,11.593 L15.567,11.593 L15.567,12.77 L17.441,12.77 L17.26,14.834 L15.567,14.834 L15.567,21.003 L13.141,21.003 L13.141,14.86 L11.879,14.86 L11.879,12.77 L13.14,12.77 L13.14,11.122 C13.14,9.577 13.954,8.77 15.76,8.77 L15.76,8.77 L17.441,8.77 Z"
            id="Combined-Shape"
        ></path>
    </symbol>

    <symbol id="head" viewBox="0 0 64 64">
        <path
            d="M19,0 C19.5128358,0 19.9355072,0.38604019 19.9932723,0.883378875 L20,1 L20,4 L53,4 C53.5128358,4 53.9355072,4.38604019 53.9932723,4.88337887 L54,5 L54,12 L61,12 C61.5128358,12 61.9355072,12.3860402 61.9932723,12.8833789 L62,13 L62,46 C62,48.1423367 60.3161686,49.8910874 58.1996528,49.9951051 L58,50 L4,50 C1.85766327,50 0.108912558,48.3161686 0.00489491788,46.1996528 L0,46 L0,1 C0,0.487164161 0.38604019,0.0644928393 0.883378875,0.00672773133 L1,0 L19,0 Z M18,2 L2,2 L2,46 C2,47.0545009 2.81574499,47.9181778 3.85071955,47.9945151 L4,48 L6,48 C7.05450092,48 7.91817777,47.184255 7.99451513,46.1492805 L8,46 L8,13 C8,12.4871642 8.38604019,12.0644928 8.88337887,12.0067277 L9,12 L52,12 L52,6 L19,6 C18.4871642,6 18.0644928,5.61395981 18.0067277,5.11662113 L18,5 L18,2 Z M60,14 L10,14 L10,46 C10,46.6694802 9.83556334,47.3005243 9.54487199,47.8549503 L9.463,48 L58,48 C59.0545009,48 59.9181778,47.184255 59.9945151,46.1492805 L60,46 L60,14 Z M29.6585046,22.2474233 C30.0421692,22.5831298 30.107569,23.14726 29.8293145,23.5589723 L29.7525767,23.6585046 L23.328,31 L29.7525767,38.3414954 C30.0882832,38.72516 30.0782197,39.2929792 29.7477755,39.6641116 L29.6585046,39.7525767 C29.27484,40.0882832 28.7070208,40.0782197 28.3358884,39.7477755 L28.2474233,39.6585046 L21.2474233,31.6585046 C20.945017,31.3128975 20.9198165,30.8110564 21.1718217,30.4394103 L21.2474233,30.3414954 L28.2474233,22.3414954 C28.6111054,21.9258588 29.242868,21.8837413 29.6585046,22.2474233 Z M41.5674513,22.1763027 L41.6641116,22.2522245 L41.7525767,22.3414954 L48.7525767,30.3414954 C49.054983,30.6871025 49.0801835,31.1889436 48.8281783,31.5605897 L48.7525767,31.6585046 L41.7525767,39.6585046 C41.3888946,40.0741412 40.757132,40.1162587 40.3414954,39.7525767 C39.9578308,39.4168702 39.892431,38.85274 40.1706855,38.4410277 L40.2474233,38.3414954 L46.671,31 L40.2474233,23.6585046 C39.9117168,23.27484 39.9217803,22.7070208 40.2522245,22.3358884 L40.3414954,22.2474233 C40.6931879,21.9396923 41.1996216,21.9225043 41.5674513,22.1763027 Z"
            id="Combined-Shape"
        ></path>
    </symbol>

    <symbol id="home" viewBox="0 0 14 14">
        <path
            d="M13.8247266,7.169273 C14.0783406,7.45754077 14.0538638,7.89954899 13.7698919,8.15595608 L7.51304105,13.8110554 C7.22906916,14.0677125 6.77374117,14.0621496 6.49589248,13.7989056 L0.217739482,7.85427639 C-0.0605979677,7.59104185 -0.0735729492,7.14979092 0.187383826,6.8691079 L0.344791981,6.70019323 C0.605748757,6.41926014 1.028275,6.38588251 1.28702779,6.625346 L1.75631056,7.0592646 L1.75631056,2 C1.75631056,0.8954305 2.65174106,-2.35729441e-12 3.75631056,0 L10.6090501,0 C11.7136196,3.40413518e-13 12.6090501,0.8954305 12.6090501,2 L12.6090501,6.96975037 L12.6090501,6.96975037 C12.6090501,6.96975037 12.73806,6.85267152 12.8981586,6.70727547 C13.0577707,6.56263437 13.3926582,6.67870113 13.6467609,6.96747376 L13.8247266,7.169273 Z"
            id="Graphics-/-Home"
            transform="translate(7.000000, 7.000000) rotate(-180.000000) translate(-7.000000, -7.000000) "
        ></path>
    </symbol>

    <symbol id="hub" viewBox="0 0 35 35">
        <path
            d="M18.5,0.25 C19.7427136,0.25 20.75,1.25728644 20.75,2.5 L20.75,2.5 L20.75,8.25 L29.5,8.25 C30.6909338,8.25 31.6656507,9.17509466 31.7448096,10.3459428 L31.75,10.5 L31.75,25.5 C31.75,26.6909338 30.8249053,27.6656507 29.6540572,27.7448096 L29.5,27.75 L20.75,27.75 L20.75,29.5 C20.75,30.6909338 19.8249053,31.6656507 18.6540572,31.7448096 L18.5,31.75 L2.5,31.75 C1.25728644,31.75 0.25,30.7427136 0.25,29.5 L0.25,29.5 L0.25,2.5 C0.25,1.25728644 1.25728644,0.25 2.5,0.25 L2.5,0.25 Z M18.5,1.75 L2.5,1.75 C2.08571356,1.75 1.75,2.08571356 1.75,2.5 L1.75,2.5 L1.75,29.5 C1.75,29.9142864 2.08571356,30.25 2.5,30.25 L2.5,30.25 L18.5,30.25 C18.9142864,30.25 19.25,29.9142864 19.25,29.5 L19.25,29.5 L19.25,2.5 C19.25,2.08571356 18.9142864,1.75 18.5,1.75 L18.5,1.75 Z M7,25 L7,27 L5,27 L5,25 L7,25 Z M12,25 L12,27 L10,27 L10,25 L12,25 Z M17,25 L17,27 L15,27 L15,25 L17,25 Z M26.25,9.75 L20.75,9.75 L20.75,26.25 L26.25,26.25 L26.25,9.75 Z M29.5,9.75 L27.75,9.75 L27.75,26.25 L29.5,26.25 C29.8797626,26.25 30.1935021,25.9679074 30.2431548,25.6017859 L30.25,25.5 L30.25,10.5 C30.25,10.1202374 29.9679074,9.80649791 29.6017859,9.75684522 L29.5,9.75 Z M7,21 L7,23 L5,23 L5,21 L7,21 Z M12,21 L12,23 L10,23 L10,21 L12,21 Z M17,21 L17,23 L15,23 L15,21 L17,21 Z M7,17 L7,19 L5,19 L5,17 L7,17 Z M12,17 L12,19 L10,19 L10,17 L12,17 Z M17,17 L17,19 L15,19 L15,17 L17,17 Z M16,4.25 C16.4142136,4.25 16.75,4.58578644 16.75,5 L16.75,5 L16.75,13 C16.75,13.4142136 16.4142136,13.75 16,13.75 L16,13.75 L5,13.75 C4.58578644,13.75 4.25,13.4142136 4.25,13 L4.25,13 L4.25,5 C4.25,4.58578644 4.58578644,4.25 5,4.25 L5,4.25 Z M15.25,5.75 L5.75,5.75 L5.75,12.25 L15.25,12.25 L15.25,5.75 Z"
            id="Combined-Shape"
        ></path>
    </symbol>

    <symbol id="inactive" viewBox="0 0 24 24">
        <circle id="Oval" cx="12" cy="12" r="12"></circle>
    </symbol>

    <symbol id="information" viewBox="0 0 24 24">
        <path
            d="M12,2 C6.47723507,2 2,6.47723507 2,12 C2,17.523554 6.47762961,22 12.0003945,22 C17.523554,22 22,17.523554 22,12 C22,6.47723507 17.523554,2 12,2 Z M12.4229464,5.95565375 C13.1488992,5.95565375 13.7371577,6.54430679 13.7371577,7.27025961 C13.7371577,7.99621242 13.1488992,8.58486546 12.4229464,8.58486546 C11.6969936,8.58486546 11.1083406,7.99621242 11.1083406,7.27025961 C11.1083406,6.54430679 11.6969936,5.95565375 12.4229464,5.95565375 Z M13.6014361,17.5866803 C13.6014361,17.5866803 12.5657697,18.4550619 11.2610274,17.8001263 C10.9714353,17.6553302 10.7268208,17.4040085 10.5705831,17.1274363 C10.1275152,16.3438807 10.2979563,15.5031169 10.2979563,15.5031169 L10.4281543,14.472185 L10.7662748,11.7837923 L9.8454194,11.8039138 C9.41418764,11.8137773 9.05831295,11.4717115 9.048844,11.0408743 C9.04134775,10.7063047 9.24848102,10.4159236 9.54280754,10.2987454 L11.9025487,9.36960467 C12.4643731,9.14826797 13.0987927,9.42444567 13.3197349,9.98627002 C13.4041663,10.1997159 13.4163971,10.4222363 13.3682632,10.6297641 L13.3370946,10.7698256 L12.4142666,14.8221416 L12.1838554,15.8353192 C12.149925,15.988006 12.144796,16.0227255 12.1349325,16.102817 C12.1100765,16.5589048 12.7586996,16.2168389 12.7586996,16.2168389 C13.1481102,16.0018149 13.6381283,16.1442437 13.8519688,16.5336542 C14.0535785,16.8993924 13.9367948,17.3546911 13.6014361,17.5866803 Z"
            id="Shape"
        ></path>
    </symbol>

    <symbol id="launch" viewBox="0 0 64 64">
        <path
            d="M25.5679253,0.176919884 L25.804874,0.347866127 C25.873015,0.398454549 25.9511689,0.457401436 26.0387136,0.524623224 C26.3965309,0.799375806 26.7933942,1.12312472 27.2195803,1.4946169 C28.432865,2.55219674 29.6448105,3.78474533 30.7771716,5.18321126 C33.9332347,9.08094918 35.8759276,13.4902068 35.9942638,18.3302651 L36,18.8 L36,24 L38.1,24 C40.1862776,24 41.8904509,25.6385869 41.9949244,27.6992993 L42,27.9 L41.9998914,40.1147352 C41.9868906,40.9969373 42.5807265,41.7645689 43.4211141,41.9822663 L43.505,42 L45.9650432,42.0006112 C48.050862,41.9276531 49.810267,43.5067783 49.9855885,45.5676929 L50,45.9 L50,57 C50,57.5128358 49.6139598,57.9355072 49.1166211,57.9932723 L49,58 L42,58 L42,61 C42,61.5128358 41.6139598,61.9355072 41.1166211,61.9932723 L41,62 L29,62 C28.4871642,62 28.0644928,61.6139598 28.0067277,61.1166211 L28,61 L28,58 L22,58 L22,61 C22,61.5128358 21.6139598,61.9355072 21.1166211,61.9932723 L21,62 L9,62 C8.48716416,62 8.06449284,61.6139598 8.00672773,61.1166211 L8,61 L8,58 L1,58 C0.487164161,58 0.0644928393,57.6139598 0.00672773133,57.1166211 L0,57 L0,45.9 C0,43.8137224 1.63858688,42.1095491 3.69929928,42.0050756 L3.9,42 L6.494,42 L6.57888593,41.9822638 C7.36983858,41.7773317 7.94238789,41.0846139 7.99608537,40.2567268 L8,40.1 L8,27.9 C8,25.8130366 9.63831285,24.1095062 11.6992736,24.0050736 L11.9,24 L14,24 L14,18.8 C14,13.7752073 15.9649568,9.20668267 19.2228284,5.18321126 C20.3551895,3.78474533 21.567135,2.55219674 22.7804197,1.4946169 C23.1213686,1.19742316 23.4435509,0.930785104 23.7419883,0.695344309 L24.195126,0.347866127 C24.2973376,0.271983494 24.3770203,0.214907405 24.4320747,0.176919884 C24.7739489,-0.0589732948 25.2260511,-0.0589732948 25.5679253,0.176919884 Z M35,52 C32.3119352,52 30.1182182,54.1229784 30.0046209,56.7831634 L30,57 L30,60 L40,60 L40,57 C40,54.3866036 37.9933267,52.2404728 35.4372412,52.0188685 L35.2168366,52.0046209 L35,52 Z M15,52 C12.3119352,52 10.1182182,54.1229784 10.0046209,56.7831634 L10,57 L10,60 L20,60 L20,57 C20,54.3866036 17.9933267,52.2404728 15.4372412,52.0188685 L15.2168366,52.0046209 L15,52 Z M38.1,26 L36,26 L36.0008546,50.0710484 C39.0656734,50.510038 41.4905382,52.9351889 41.929095,56.0001471 L48,56 L47.9985896,45.8323333 C47.964266,44.8332044 47.1652876,44.0413779 46.1533231,44.0004409 L43.4,44 L43.2280962,43.9851137 C41.4051789,43.6670121 40.0668403,42.1144189 40.0020343,40.2958233 L40,40.1 L40,27.9 C40,26.9006509 39.2282213,26.0814679 38.2484545,26.0057166 L38.1,26 Z M25,2.25 L24.9792617,2.26669944 C24.7746523,2.42814853 24.5566806,2.60657963 24.3274652,2.80165169 L24.0945803,3.0022581 C22.964115,3.98764701 21.8323105,5.13869217 20.7771716,6.44178874 C17.8847808,10.0138914 16.1203441,14.0111165 16.0059287,18.349941 L16,18.8 L16.0008546,50.0710484 C19.0656734,50.510038 21.4905382,52.9351889 21.929095,56.0001471 L28.070905,56.0001471 C28.5095096,52.934855 30.934855,50.5095096 34.0001471,50.070905 L34,18.8 C34,14.2872927 32.2149568,10.1370673 29.2228284,6.44178874 C28.1676895,5.13869217 27.035885,3.98764701 25.9054197,3.0022581 C25.6689438,2.79612997 25.4430056,2.60652911 25.2297234,2.43379657 L25,2.25 Z M14.0001471,50.070905 L14,26 L11.9,26 C10.9002712,26 10.0814317,26.7712333 10.005714,27.7514676 L10,27.9 L9.99989143,40.0852648 C10.0271632,41.9358523 8.75262429,43.5412899 6.96532613,43.9463511 L6.77190375,43.9851137 L6.6,44 L3.9,44 C2.90065085,44 2.08146788,44.7717787 2.00571655,45.7515455 L2,45.9 L2,56 L8.07090499,56.0001471 C8.5095096,52.934855 10.934855,50.5095096 14.0001471,50.070905 Z M25,16 C27.7612847,16 30,18.2387153 30,21 C30,23.7612847 27.7612847,26 25,26 C22.2387153,26 20,23.7612847 20,21 C20,18.2387153 22.2387153,16 25,16 Z M25,18 C23.3432847,18 22,19.3432847 22,21 C22,22.6567153 23.3432847,24 25,24 C26.6567153,24 28,22.6567153 28,21 C28,19.3432847 26.6567153,18 25,18 Z"
            id="Combined-Shape"
        ></path>
    </symbol>

    <symbol id="less" viewBox="0 0 8 8">
        <path
            d="M8,4.63638648 C8,4.93692675 7.75574821,5.18218369 7.45420279,5.18218369 L0.545797211,5.18218369 C0.24425179,5.18218369 0,4.93692675 0,4.63638648 L0,3.54579721 C0,3.24425179 0.24425179,3 0.545797211,3 L7.45420279,3 C7.75574821,3 8,3.24425179 8,3.54579721 L8,4.63638648 Z"
            id="Path-Copy-2"
        ></path>
    </symbol>

    <symbol id="linkedin" viewBox="0 0 30 30">
        <path
            d="M14.469,-2.66453526e-14 C22.460008,-2.66453526e-14 28.938,6.47799196 28.938,14.469 C28.938,22.460008 22.460008,28.938 14.469,28.938 C6.47799196,28.938 2.57571742e-13,22.460008 2.57571742e-13,14.469 C2.57571742e-13,6.47799196 6.47799196,-2.66453526e-14 14.469,-2.66453526e-14 Z M14.469,2 C7.58256145,2 2,7.58256145 2,14.469 C2,21.3554385 7.58256145,26.938 14.469,26.938 C21.3554385,26.938 26.938,21.3554385 26.938,14.469 C26.938,7.58256145 21.3554385,2 14.469,2 Z M18.051,11.314 C19.784,11.314 21.025,12.382 21.025,14.592 L21.025,19.817 L18.507,19.817 L18.507,15.486 C18.507,14.298 18.06,13.635 17.129,13.635 C16.117,13.635 15.588,14.325 15.588,15.486 L15.588,19.817 L13.161,19.817 L13.161,11.566 L15.588,11.566 L15.588,12.678 C16.1111449,11.8209383 17.0469544,11.3026905 18.051,11.314 Z M11.543,11.566 L11.543,19.816 L9.013,19.817 L9.013,11.566 L11.543,11.566 Z M10.27,7.441 C10.6708287,7.44364183 11.0541597,7.60554639 11.3355237,7.89103708 C11.6168877,8.17652777 11.7731942,8.56217529 11.77,8.963 C11.7734611,9.36399721 11.6172729,9.74990211 11.33588,10.0356097 C11.0544871,10.3213172 10.6710034,10.4833592 10.27,10.486 C9.86899655,10.4833592 9.48551285,10.3213172 9.20412,10.0356097 C8.92272714,9.74990211 8.76653888,9.36399721 8.77,8.963 C8.76680583,8.56217529 8.92311227,8.17652777 9.20447629,7.89103708 C9.48584031,7.60554639 9.86917127,7.44364183 10.27,7.441 Z"
            id="Combined-Shape"
        ></path>
    </symbol>

    <symbol id="locationworld" viewBox="0 0 50 50">
        <path
            d="M29.2332261,9.12893793 L29.4238782,9.20257663 C29.5658173,9.2275078 29.7014342,9.28285948 29.8205775,9.36509032 C30.3426283,9.5845722 30.858474,9.82545782 31.3659597,10.0876032 C31.8566457,10.3410705 32.0489494,10.944326 31.7954821,11.435012 C31.5420148,11.925698 30.9387593,12.1180017 30.4480733,11.8645344 C30.0523031,11.6600965 29.6509281,11.4699148 29.2446993,11.2940557 L28.5476843,11.6023517 C26.9151293,12.3110152 24.6374323,13.2264797 24.6429235,13.2240469 C22.9636815,13.9679796 22.4480116,14.4966466 22.4480116,15.4696731 C22.4480116,15.9877936 22.5853416,16.1502933 23.4126888,16.4175061 L23.783153,16.5315022 C25.6897783,17.0998961 26.5469137,17.7675585 26.5469137,19.5691016 C26.5469137,23.2529817 22.5395987,25.8265812 19.55899,23.874191 C16.9547133,22.167133 14.738575,22.2748832 12.7182253,25.0460045 C11.6270595,26.5426525 11.2874307,28.2566575 11.6243005,29.7446901 C11.8853696,30.8978935 12.4939296,31.593745 12.8949341,31.5777028 C13.2244952,31.5645186 13.5523503,31.4927575 14.0885117,31.3252751 L14.9248879,31.0598868 C15.6439685,30.8417893 15.954775,30.8004702 16.4511909,30.8524831 C17.417171,30.9536955 18.1157653,31.5908921 18.5244753,32.7056988 L18.7514006,33.3117782 C19.0270311,34.0289488 19.200725,34.3971092 19.3422,34.5930228 C19.3972818,34.6692996 19.4422786,34.7136849 19.5294058,34.7703531 L19.6779003,34.8584439 C19.7354146,34.8905936 19.8152114,34.9338815 19.9562851,35.0101107 C21.2669492,35.7251101 21.518718,37.0975526 21.0807489,38.9545151 C20.8615786,39.8884433 22.4051992,43.1656725 22.8660741,43.1656725 C23.9503864,43.1656725 24.478639,42.7711022 24.6112467,41.519526 L24.6275166,41.3348495 C24.7345471,39.843685 25.3653998,38.9535917 26.4692493,38.3137907 L26.7485724,38.1619461 L27.2936084,37.8921345 L27.491,37.783 L27.4946935,37.7428956 C27.4976052,37.6760769 27.4964048,37.6012901 27.489833,37.4891381 L27.420185,36.5884472 C27.3954013,36.2054106 27.3944169,35.9254595 27.4215098,35.6043233 C27.4872365,34.825254 27.7314065,34.1415215 28.2155425,33.5588406 L28.3680438,33.3870735 C28.5076724,33.2396688 29.2863506,32.4424992 29.511342,32.2044227 L29.8433133,31.8459804 C29.9980663,31.6749202 30.1367802,31.5150298 30.2631003,31.3614867 C30.6814674,30.852958 30.9343374,30.4414384 31.0068428,30.1888545 L31.024,30.109 L30.9783853,30.1110837 C30.9550421,30.1089624 30.922105,30.103332 30.8752071,30.0921137 L30.7938888,30.0707982 C30.0608766,29.8646121 29.5135931,29.6691939 29.0891465,29.4587502 C28.2581715,29.0467468 27.8686501,28.5899394 27.5882891,27.8293411 L27.5218803,27.6324175 L27.3991525,27.2003944 C27.37871,27.123914 27.3579393,27.0432704 27.3384044,26.9625284 L27.3057902,26.8219366 L27.3640346,27.1582347 L27.3041223,27.0039483 L26.9416264,26.2010499 C26.9069202,26.1187378 26.8838426,26.0558928 26.8517295,25.9639312 C26.7203023,25.5875652 26.669535,25.2480956 26.744273,24.8897141 C26.937844,23.9615082 27.7421988,23.5821736 29.0176604,23.5357221 C30.8408842,23.5416169 32.593164,22.8481274 33.9233816,21.5982122 L34.1411163,21.3847654 L34.6928916,20.8329193 C35.0833908,20.4423699 35.7165558,20.4423293 36.1071052,20.8328285 C36.4676123,21.1932893 36.4953782,21.7605186 36.1903785,22.1528294 L36.107196,22.247042 L35.5632762,22.7909434 C33.9147288,24.4769626 31.6804794,25.4561268 29.3673285,25.530514 L28.9874782,25.5378226 L28.841,25.547 L28.9806341,25.853583 C29.0894828,26.0880067 29.1609394,26.2516853 29.2650719,26.6577071 L29.304,26.817 L29.2475457,26.4856385 L29.4624154,27.1333114 C29.5679811,27.4325932 29.6407721,27.4999197 29.9775585,27.6669008 C30.2731984,27.8134812 30.7117938,27.9700902 31.3354444,28.1455145 C32.5263147,28.4804898 33.1644355,29.3177814 33.0024963,30.4052191 C32.8986312,31.102683 32.4867436,31.8066198 31.8075886,32.6321385 C31.6250243,32.854047 31.4252667,33.0816188 31.1995846,33.3267292 L30.9649377,33.5781255 C30.7250776,33.8319355 29.9453127,34.6302176 29.8200373,34.7624697 C29.5737055,35.02252 29.4510786,35.3380561 29.4144299,35.7724576 C29.3936097,36.0192424 29.3990354,36.2567185 29.430386,36.6576951 L29.4788769,37.2649084 C29.5556274,38.3805677 29.4647821,38.7792184 28.8509208,39.2703705 C28.6809362,39.4063756 28.5074772,39.5143698 28.2773587,39.6350373 L27.664888,39.9396977 L27.5944951,39.9763946 C26.9858063,40.2991376 26.7200562,40.6107273 26.6381262,41.309396 L26.6224099,41.4776798 C26.4438289,43.9781349 25.0022868,45.1656725 22.8660741,45.1656725 C20.8452111,45.1656725 18.6583685,40.5228315 19.1339017,38.4964924 C19.3892676,37.413755 19.300651,36.9306885 18.9984861,36.7658501 L18.6508811,36.5753153 L18.5893294,36.5396591 C18.2261395,36.3259905 17.9650286,36.1021524 17.7207702,35.7639051 C17.4414711,35.3771335 17.1988655,34.8609065 16.8277205,33.8806978 L16.646694,33.3941302 C16.482953,32.9475064 16.3829363,32.8562799 16.2427781,32.8415945 L16.1473146,32.837405 C15.9961907,32.8398902 15.7977272,32.8845812 15.3945008,33.0085065 L14.9171897,33.1602146 C14.0866381,33.429792 13.5809105,33.55186 12.9748804,33.5761043 C9.57309172,33.7121933 8.23479441,27.8006211 11.1021382,23.8677589 C13.828188,20.1286963 17.2400621,19.9628085 20.655141,22.2013333 C22.2291264,23.232342 24.5469137,21.7438001 24.5469137,19.5691016 C24.5469137,19.0068859 24.3983037,18.8286583 23.5596646,18.5558271 L23.1850948,18.4401944 C21.2867854,17.8743955 20.4480116,17.2335069 20.4480116,15.4696731 C20.4480116,13.5853892 21.432239,12.5065665 23.5798523,11.5101079 L23.9179346,11.3607117 C24.226109,11.2356101 25.3197086,10.7931076 26.4367881,10.3261331 C22.9415998,9.41019512 19.2315274,9.4775003 15.7266637,10.5642067 C5.44327815,13.7527281 -0.308343794,24.6749082 2.87979289,34.9604441 C6.06782828,45.2456532 16.9890471,50.9983559 27.2725568,47.809796 C37.5560808,44.6204818 43.3083824,33.6974278 40.1202855,23.4127702 C39.9567616,22.8852493 40.2518394,22.3250467 40.7793604,22.1615227 C41.3068814,21.9979988 41.8670839,22.2930767 42.0306079,22.8205976 C45.5457153,34.1601765 39.2034286,46.203554 27.8649317,49.7200557 C16.526241,53.2357906 4.4845322,46.8928749 0.969458313,35.5525774 C-2.54566205,24.2121299 3.79595066,12.1695727 15.1343599,8.65392503 C19.6202907,7.26303219 24.4111441,7.38673046 28.7825389,8.96091928 L29.2332261,9.12893793 Z"
            id="Stroke-1"
        ></path>
        <path
            d="M39,0.689655172 C34.0298544,0.689655172 30,4.71923124 30,9.68965517 C30,10.8518581 30.1884974,12.0770911 30.5467521,13.3578519 C31.2248509,15.782055 32.4855915,18.3369086 34.1597034,20.931782 C35.0544471,22.3186348 36.011616,23.6299562 36.9691312,24.8268502 C37.2376156,25.1624558 37.4910548,25.4700358 37.7254693,25.7470425 L38.1518874,26.2413343 C38.1963698,26.2916765 38.2325932,26.3321146 38.2600599,26.362328 C38.6568202,26.7987642 39.3431798,26.7987642 39.7399401,26.362328 L40.1023492,25.9490253 L40.4538466,25.5335948 C40.6366051,25.3144942 40.8295055,25.0785544 41.0308688,24.8268502 C41.988384,23.6299562 42.9455529,22.3186348 43.8402966,20.931782 C45.5144085,18.3369086 46.7751491,15.782055 47.4532479,13.3578519 C47.8115026,12.0770911 48,10.8518581 48,9.68965517 C48,4.71923124 43.9701456,0.689655172 39,0.689655172 Z M39,2.68965517 C42.865607,2.68965517 46,5.82383167 46,9.68965517 C46,10.6576297 45.8389298,11.7045861 45.52718,12.8190916 C44.9107863,15.0226992 43.7341122,17.4071946 42.1597034,19.8475283 C41.3044471,21.1731756 40.386616,22.4306042 39.4691312,23.5774601 L39,24.153 L38.5308688,23.5774601 C37.613384,22.4306042 36.6955529,21.1731756 35.8402966,19.8475283 C34.2658878,17.4071946 33.0892137,15.0226992 32.47282,12.8190916 C32.1610702,11.7045861 32,10.6576297 32,9.68965517 C32,5.82383167 35.134393,2.68965517 39,2.68965517 Z"
            id="Stroke-3"
        ></path>
        <path
            d="M39.5,7.68965517 C38.1197153,7.68965517 37,8.80937042 37,10.1896552 C37,11.5699399 38.1197153,12.6896552 39.5,12.6896552 C40.8802847,12.6896552 42,11.5699399 42,10.1896552 C42,8.80937042 40.8802847,7.68965517 39.5,7.68965517 Z"
            id="Stroke-5"
        ></path>
    </symbol>

    <symbol id="money" viewBox="0 0 35 35">
        <path
            d="M28.1404027,2.0478251 L28.089,1.908 L28.1180061,1.97640155 L32.6151759,13.7960744 C32.9999104,14.7602933 32.534738,15.828703 31.5678741,16.2585425 L31.4386652,16.31122 L26.0057617,18.1844471 C25.9211835,18.2136091 25.8349581,18.2267696 25.7503822,18.2255348 L25.75,27.2754098 C25.75,28.3526234 24.8772136,29.2254098 23.8,29.2254098 L23.8,29.2254098 L2.2,29.2254098 C1.12316204,29.2254098 0.25,28.3524991 0.25,27.2754098 L0.25,27.2754098 L0.25,14.6754098 C0.25,13.5986963 1.12328644,12.7254098 2.2,12.7254098 L2.2,12.7254098 L4.187,12.7253701 L3.38482413,10.6055187 C3.00090674,9.6433475 3.46329774,8.57739502 4.40105484,8.15469334 L4.55842381,8.08986726 L25.5573028,0.847736721 C26.5740353,0.479802566 27.7156142,0.96792563 28.1404027,2.0478251 Z M23.8,14.2254098 L2.2,14.2254098 C1.95171356,14.2254098 1.75,14.4271234 1.75,14.6754098 L1.75,14.6754098 L1.75,27.2754098 C1.75,27.5239753 1.95149254,27.7254098 2.2,27.7254098 L2.2,27.7254098 L23.8,27.7254098 C24.0487864,27.7254098 24.25,27.5241963 24.25,27.2754098 L24.25,27.2754098 L24.25,14.6754098 C24.25,14.4269024 24.0485654,14.2254098 23.8,14.2254098 L23.8,14.2254098 Z M21,23.7254098 C21.4142136,23.7254098 21.75,24.0611963 21.75,24.4754098 C21.75,24.8551056 21.4678461,25.1689008 21.1017706,25.2185632 L21,25.2254098 L20,25.2254098 C19.5857864,25.2254098 19.25,24.8896234 19.25,24.4754098 C19.25,24.0957141 19.5321539,23.7819189 19.8982294,23.7322565 L20,23.7254098 L21,23.7254098 Z M16,23.7254098 C16.4142136,23.7254098 16.75,24.0611963 16.75,24.4754098 C16.75,24.8551056 16.4678461,25.1689008 16.1017706,25.2185632 L16,25.2254098 L15,25.2254098 C14.5857864,25.2254098 14.25,24.8896234 14.25,24.4754098 C14.25,24.0957141 14.5321539,23.7819189 14.8982294,23.7322565 L15,23.7254098 L16,23.7254098 Z M11,23.7254098 C11.4142136,23.7254098 11.75,24.0611963 11.75,24.4754098 C11.75,24.8551056 11.4678461,25.1689008 11.1017706,25.2185632 L11,25.2254098 L10,25.2254098 C9.58578644,25.2254098 9.25,24.8896234 9.25,24.4754098 C9.25,24.0957141 9.53215388,23.7819189 9.89822944,23.7322565 L10,23.7254098 L11,23.7254098 Z M6,23.7254098 C6.41421356,23.7254098 6.75,24.0611963 6.75,24.4754098 C6.75,24.8551056 6.46784612,25.1689008 6.10177056,25.2185632 L6,25.2254098 L5,25.2254098 C4.58578644,25.2254098 4.25,24.8896234 4.25,24.4754098 C4.25,24.0957141 4.53215388,23.7819189 4.89822944,23.7322565 L5,23.7254098 L6,23.7254098 Z M12,19.7254098 C12.4142136,19.7254098 12.75,20.0611963 12.75,20.4754098 C12.75,20.8551056 12.4678461,21.1689008 12.1017706,21.2185632 L12,21.2254098 L5,21.2254098 C4.58578644,21.2254098 4.25,20.8896234 4.25,20.4754098 C4.25,20.0957141 4.53215388,19.7819189 4.89822944,19.7322565 L5,19.7254098 L12,19.7254098 Z M21,16.7254098 C21.4142136,16.7254098 21.75,17.0611963 21.75,17.4754098 C21.75,17.8551056 21.4678461,18.1689008 21.1017706,18.2185632 L21,18.2254098 L18,18.2254098 C17.5857864,18.2254098 17.25,17.8896234 17.25,17.4754098 C17.25,17.0957141 17.5321539,16.7819189 17.8982294,16.7322565 L18,16.7254098 L21,16.7254098 Z M27.965,5.783 L8.016,12.7253701 L23.8,12.7254098 C24.8281306,12.7254098 25.6702226,13.5209976 25.7446522,14.5298936 L25.75,14.6754098 L25.75,16.6853701 L30.9434946,14.8957012 C31.1647122,14.8154125 31.2793556,14.6153062 31.2397734,14.4154411 L31.2176077,14.3407374 L27.965,5.783 Z M26.2417717,2.22723518 L26.1497472,2.23676063 L26.0570908,2.26198023 L5.087,9.492 L5.057,9.506 C4.83516821,9.5865469 4.7206436,9.78640987 4.76054633,9.98701363 L4.78284257,10.0620421 L5.518,12.005 L27.432,4.38 L26.749,2.584 L26.7294101,2.54513841 L26.7183682,2.51613507 C26.6472368,2.33786595 26.4543705,2.22254253 26.2417717,2.22723518 Z M27.0925449,8.65737411 C27.214365,9.01699714 27.0478042,9.40472864 26.7170148,9.56921594 L26.622821,9.60835229 L24.2944338,10.3970795 C23.9021178,10.5299742 23.4763504,10.3196717 23.3434557,9.92735565 C23.2216355,9.56773261 23.3881964,9.18000112 23.7189857,9.01551382 L23.8131795,8.97637747 L26.1415667,8.18765025 C26.5338827,8.05475554 26.9596502,8.26505807 27.0925449,8.65737411 Z"
            id="Combined-Shape"
        ></path>
    </symbol>

    <symbol id="newspaper" viewBox="0 0 64 64">
        <path
            d="M61,0 C61.5128358,0 61.9355072,0.38604019 61.9932723,0.883378875 L62,1 L62,53 C62,57.8815297 58.1129182,61.8557817 53.2653479,61.9961626 L53,62 L9,62 L8.73465212,61.9961626 C3.88708183,61.8557817 0,57.8815297 0,53 L0,53 L0,9 C0,8.44771525 0.44771525,8 1,8 L1,8 L16,8 L16,1 C16,0.487164161 16.3860402,0.0644928393 16.8833789,0.00672773133 L17,0 L61,0 Z M60,2 L18,2 L18,53 C18,55.8276162 16.6957744,58.3508151 14.6561183,60.0008015 L53,60 C56.7851795,60 59.8690873,56.9949501 59.9959406,53.2406331 L60,53 L60,2 Z M16,10 L2,10 L2,53 C2,56.7851795 5.00504992,59.8690873 8.75936691,59.9959406 L8.75936691,59.9959406 L9,60 C12.8657153,60 16,56.8657153 16,53 L16,53 L16,10 Z M54,47 L54,49 L24,49 L24,47 L54,47 Z M54,39 L54,41 L24,41 L24,39 L54,39 Z M53,16 C53.5522847,16 54,16.4477153 54,17 L54,17 L54,33 C54,33.5522847 53.5522847,34 53,34 L53,34 L41,34 C40.4477153,34 40,33.5522847 40,33 L40,33 L40,17 C40,16.4477153 40.4477153,16 41,16 L41,16 Z M34,31 L34,33 L24,33 L24,31 L34,31 Z M52,18 L42,18 L42,32 L52,32 L52,18 Z M34,24 L34,26 L24,26 L24,24 L34,24 Z M34,16 L34,18 L24,18 L24,16 L34,16 Z M54,8 L54,10 L24,10 L24,8 L54,8 Z"
            id="Combined-Shape"
        ></path>
    </symbol>

    <symbol id="onlinepayments" viewBox="0 0 50 50">
        <g id="Group-7" transform="translate(10.000000, 1.500000)">
            <path
                d="M7.02891918,31.7860121 C7.58103944,31.7994902 8.01769518,32.2579983 8.00421706,32.8101186 C7.93332603,35.7141116 8.75769075,38.569972 10.3816399,41.0170179 C12.0761717,43.7239887 12.574271,45.0765932 12.6025289,46.3126596 L12.6036119,46.5 C12.6036119,47.0522847 12.1558967,47.5 11.6036119,47.5 C11.0907761,47.5 10.6681047,47.1139598 10.6103396,46.6166211 L10.6036119,46.5 L10.6037924,46.4405554 C10.6076267,45.5911554 10.2589008,44.590255 8.70087171,42.1006713 C6.86464859,39.33449 5.92390888,36.0754699 6.00481271,32.76131 C6.01829083,32.2091897 6.47679892,31.772534 7.02891918,31.7860121 Z M21.407782,13.7043836 L21.5027121,13.7867465 L28.2521184,20.4193345 C30.2864756,22.4414528 31,24.9946873 31,29.7380952 L30.9892587,34.794042 L30.9460458,43.1737764 L30.9233202,46.5075076 C30.9191738,47.0597768 30.4681099,47.5041182 29.9158407,47.5000838 C29.3635716,47.4958255 28.9192302,47.0447615 28.9233766,46.4924924 L28.9780992,37.4301885 L28.9994505,30.7417822 C28.999815,30.3953616 29,30.0606292 29,29.7380952 C29,25.6089859 28.4577853,23.5397215 26.9910802,21.9902071 L26.8462421,21.8418249 L20.1008998,15.2132535 C19.7069808,14.8261537 19.7014527,14.1930129 20.0885524,13.7990939 C20.4160984,13.4657777 20.9198039,13.4105404 21.3056841,13.6359485 L21.407782,13.7043836 Z"
                id="Stroke-1"
            ></path>
            <path
                d="M19.5,-0.5 C20.8284869,-0.5 21.910279,0.544980394 21.9946967,1.85830279 L22,2.02380952 L22,25.6428571 C22,26.1951419 21.5522847,26.6428571 21,26.6428571 C20.4871642,26.6428571 20.0644928,26.256817 20.0067277,25.7594783 L20,25.6428571 L20,2.02380952 C20,1.76394065 19.8199779,1.55218669 19.5888266,1.50833852 L19.5,1.5 L14.5,1.5 L14.5,18.0238095 C14.5,18.5760943 14.0522847,19.0238095 13.5,19.0238095 C12.9871642,19.0238095 12.5644928,18.6377693 12.5067277,18.1404306 L12.5,18.0238095 L12.5,1.5 L1.5,1.5 C1.25808046,1.5 1.05117837,1.68287964 1.00818679,1.92884805 L1,2.02380952 L1,30.9761905 C1,31.2360594 1.18002214,31.4478133 1.41117336,31.4916615 L1.5,31.5 L13.35,31.5 C13.9022847,31.5 14.35,31.9477153 14.35,32.5 C14.35,33.0128358 13.9639598,33.4355072 13.4666211,33.4932723 L13.35,33.5 L1.5,33.5 C0.171513099,33.5 -0.910278952,32.4550196 -0.994696737,31.1416972 L-1,30.9761905 L-1,2.02380952 C-1,0.689473624 0.028652575,-0.408880205 1.33527831,-0.494613574 L1.5,-0.5 L19.5,-0.5 Z"
                id="Stroke-3"
            ></path>
            <path
                d="M6.36342028,16.8621954 C8.14633279,15.1026639 10.9676732,15.0476785 12.8192664,16.7018507 L12.9953581,16.8672676 L24.7075272,28.5933765 C25.0978192,28.984133 25.0974426,29.6172979 24.7066861,30.0075898 C24.3459878,30.3678593 23.7787404,30.3952515 23.3866306,30.0899934 L23.2924728,30.0067487 L11.5852235,18.2855315 C10.5244457,17.2381261 8.82977562,17.2381261 7.78290524,18.2709646 C6.78255494,19.3000902 6.74087368,20.9230875 7.65145477,21.9946936 L7.77562604,22.1312472 L14.1912091,28.5956406 C14.4545946,28.86103 14.5479241,29.2511853 14.433146,29.6070356 C14.4119053,29.6728887 14.3712297,29.8320241 14.3278045,30.0724358 C13.893623,32.4761636 14.4308659,35.261064 16.7371615,37.9429871 C17.2658804,38.5578187 17.8804433,39.1518653 18.5861001,39.7223392 C19.0155902,40.0695519 19.0822894,40.6991939 18.7350767,41.1286841 C18.3878641,41.5581743 17.758222,41.6248734 17.3287318,41.2776608 C16.53024,40.6321362 15.8288589,39.9541697 15.2207469,39.2470142 C12.5661378,36.1600477 11.8692625,32.881216 12.313162,29.994998 L12.3596538,29.7169319 L12.379,29.609 L6.34896332,23.5328644 C4.6065813,21.741284 4.55213186,18.9107776 6.19875854,17.0401593 L6.36342028,16.8621954 Z"
                id="Stroke-5"
            ></path>
        </g>
    </symbol>

    <symbol id="plus" viewBox="0 0 8 8">
        <path
            d="M8,3.45470536 L8,4.54529464 C8,4.8458349 7.75574821,5.09109185 7.45420279,5.09109185 L5.09109185,5.09109185 L5.09109185,7.45420279 C5.09109185,7.75574821 4.84684006,8 4.54529464,8 L3.45470536,8 C3.15315994,8 2.90890815,7.75474306 2.90890815,7.45420279 L2.90890815,5.09008669 L0.545797211,5.09109185 C0.24425179,5.09109185 0,4.8458349 0,4.54529464 L0,3.45470536 C0,3.15315994 0.24425179,2.90890815 0.545797211,2.90890815 L2.90890815,2.90890815 L2.90890815,0.545797211 C2.90890815,0.24425179 3.15315994,0 3.45470536,0 L4.54529464,0 C4.84684006,0 5.09109185,0.24425179 5.09109185,0.545797211 L5.09109185,2.90890815 L7.45420279,2.90890815 C7.75574821,2.90890815 8,3.15315994 8,3.45470536 L8,3.45470536 Z"
            id="Path-Copy"
        ></path>
    </symbol>

    <symbol id="research" viewBox="0 0 64 64">
        <path
            d="M14.4424672,0.336410335 L14.5563141,0.439300625 L17.6801396,3.55983177 C18.7461446,3.12833271 20.0128001,3.34488652 20.8774068,4.20949322 L20.8774068,4.20949322 L37.4514068,20.7824932 C38.6049311,21.9360175 38.6049311,23.8061825 37.4513428,24.9597708 L37.4513428,24.9597708 L31.9264068,30.4837068 C30.7728825,31.6372311 28.9037175,31.6372311 27.7501932,30.4837068 L27.7501932,30.4837068 L21.506832,24.2393706 C18.2245671,27.0496223 16.6945716,31.4281641 17.5446248,35.6954403 C18.5659999,36.8422609 19.2152107,38.3271153 19.3039535,39.9608001 L19.1886003,39.7866721 C20.3217996,41.5713688 21.9064443,43.0243937 23.7823271,43.999262 C29.1460836,46.7851478 35.6437594,45.1237562 39.0611255,40.3473417 L29.3144,40.3464 C28.7621153,40.3464 28.3144,39.8986847 28.3144,39.3464 C28.3144,38.8335642 28.7004402,38.4108928 29.1977789,38.3531277 L29.3144,38.3464 L57.3144,38.3464 C57.8666847,38.3464 58.3144,38.7941153 58.3144,39.3464 C58.3144,39.8592358 57.9283598,40.2819072 57.4310211,40.3396723 L57.3144,40.3464 L49.1183356,40.3476778 C47.8571028,43.9153319 45.6519536,47.0813125 42.7322302,49.5050478 C41.3393477,50.6616318 39.8412924,51.6077938 38.2766474,52.3471138 L52.8142461,52.3464 C56.0888088,52.3475335 59.0699625,54.2303174 60.4693272,57.1691864 C60.5708584,57.3722487 60.6248049,57.595591 60.6279269,57.8283048 C60.6337835,58.6591776 59.9674396,59.3374409 59.1259,59.3464 L59.1259,59.3464 L1.48774324,59.3463134 C1.26229217,59.343347 1.04186043,59.2899318 0.840438214,59.1906801 C0.0948473096,58.8238493 -0.211545845,57.9221518 0.14905228,57.1864395 C1.55686942,54.2302503 4.54016162,52.3464 7.8139,52.3464 L7.8139,52.3464 L8.3139953,52.3463259 L8.31438082,46.0912878 C6.562442,44.869013 5.39547994,42.8659311 5.31845992,40.5870073 L5.3144,40.3464 C5.3144,37.952917 6.51637607,35.8395637 8.34949744,34.5771709 C8.32605075,34.1714551 8.31438601,33.761425 8.31438601,33.3475355 C8.30945829,27.4414056 10.7954907,21.8260687 15.1295287,17.8632955 L11.176657,13.9101703 C10.3105712,13.0452196 10.0944526,11.7759098 10.5281322,10.7086854 L7.40729322,7.58770678 C6.8583642,7.03877776 6.82405613,6.16936376 7.30442697,5.58031617 L7.40736355,5.4664229 L12.4352932,0.439493219 C12.9842222,-0.109435805 13.8536362,-0.143743869 14.4424672,0.336410335 Z M28.9679516,54.3469217 L7.8139,54.3464 C5.65674943,54.3464 3.66428799,55.416688 2.46310648,57.166146 L2.46310648,57.166146 L2.344,57.346 L58.283,57.346 L58.1606518,57.1597024 C57.0108402,55.4865458 55.1297738,54.4337988 53.0720017,54.3515952 L53.0720017,54.3515952 L52.8139,54.3464 L29.6773477,54.3470432 C29.440831,54.3509772 29.2043298,54.3509334 28.9679516,54.3469217 Z M46.9830107,40.3473373 L41.43629,40.3475898 C37.7185976,46.8037762 29.5366411,49.2416783 22.8602673,45.7740312 C21.3622487,44.9955333 20.0234364,43.9557493 18.9037203,42.7094534 C18.3174691,44.3488534 17.1345128,45.705873 15.6169234,46.5196272 C22.4549964,53.6435052 33.7384399,54.3734634 41.4546736,47.966266 C43.9132695,45.9253243 45.8117707,43.3028785 46.9830107,40.3473373 Z M10.3139809,47.0562637 L10.3139953,52.3463259 L20.3528492,52.3471002 C17.8311557,51.1598688 15.5095453,49.4507391 13.5585653,47.2355351 C13.1558401,47.3084775 12.7395391,47.3464 12.3144,47.3464 C11.6193076,47.3464 10.9478408,47.2450275 10.3139809,47.0562637 Z M12.3144,35.3464 C9.55368475,35.3464 7.3144,37.5856847 7.3144,40.3464 C7.3144,43.1071153 9.55368475,45.3464 12.3144,45.3464 C12.7528452,45.3464 13.1781386,45.2899197 13.583399,45.1838405 C13.6301159,45.1660981 13.6778475,45.1528258 13.7260816,45.1431635 C15.7999945,44.5344119 17.3144,42.616725 17.3144,40.3464 C17.3144,39.0148077 16.7934349,37.8045252 15.9442728,36.9083206 C15.9178443,36.8863565 15.8939604,36.8617711 15.8713416,36.8359406 C14.9663773,35.91595 13.7067002,35.3464 12.3144,35.3464 Z M10.314386,33.3467 L10.3179868,33.6353447 C10.9506697,33.4473459 11.6207717,33.3464 12.3144,33.3464 C13.3940113,33.3464 14.416628,33.5909513 15.3298638,34.0276675 C15.1237325,29.787347 16.8611915,25.6474885 20.0886538,22.8217806 L16.544995,19.2793614 C12.583882,22.867208 10.3099037,27.9735811 10.314386,33.3467 Z M19.4631932,5.62370678 C19.0907175,5.25123107 18.4878825,5.25123107 18.1153428,5.62377078 L18.1153428,5.62377078 L12.5904068,11.1477068 C12.5875422,11.1505714 12.5846996,11.1534497 12.5818791,11.1563414 C12.5811631,11.159721 12.5789382,11.1626149 12.5766954,11.1654994 L12.5050655,11.2453528 C12.2205945,11.6190766 12.2490416,12.1545751 12.5904068,12.4954932 L12.5904068,12.4954932 L17.25627,17.1593628 C17.2882474,17.187356 17.3187686,17.2176855 17.3475911,17.2503277 L29.1644068,29.0694932 C29.5368825,29.4419689 30.1397175,29.4419689 30.5122572,29.0694292 L30.5122572,29.0694292 L36.0371932,23.5454932 C36.4096689,23.1730175 36.4096689,22.5691825 36.0372146,22.1967281 L36.0372146,22.1967281 Z M13.496,2.206 L9.175,6.527 L11.7789953,9.13032592 L16.0999953,4.80932592 L13.496,2.206 Z"
            id="Combined-Shape"
        ></path>
    </symbol>

    <symbol id="rocket" viewBox="0 0 35 35">
        <path
            d="M15.4288739,0.384721902 L15.607166,0.514431966 C15.8096707,0.666854257 16.0826894,0.887138152 16.4071073,1.17280794 C17.1216191,1.80197938 17.8351037,2.5349974 18.5018791,3.36686773 C20.3431142,5.66399648 21.4853315,8.26227407 21.5773197,11.1156617 L21.5833333,11.4892857 L21.583,14.392 L22.6416667,14.3928571 C23.9376718,14.3928571 24.9955871,15.4089563 25.0781467,16.6902917 L25.0833333,16.8517857 L25.0832535,24.0520113 C25.0769238,24.4859129 25.3557045,24.8631056 25.7525153,24.98471 L25.818,25 L27.3843914,25.0000296 C28.6087933,25.0367947 29.6168805,25.9872003 29.7378263,27.215287 L29.75,27.4589286 L29.75,34 C29.75,34.3796958 29.4678461,34.693491 29.1017706,34.7431534 L29,34.75 L25.75,34.75 L25.75,36 C25.75,36.3796958 25.4678461,36.693491 25.1017706,36.7431534 L25,36.75 L17.875,36.75 C17.4953042,36.75 17.181509,36.4678461 17.1318466,36.1017706 L17.125,36 L17.125,34.75 L13.875,34.75 L13.875,36 C13.875,36.3796958 13.5928461,36.693491 13.2267706,36.7431534 L13.125,36.75 L6,36.75 C5.62030423,36.75 5.30650904,36.4678461 5.25684662,36.1017706 L5.25,36 L5.25,34.75 L1,34.75 C0.620304234,34.75 0.306509039,34.4678461 0.256846616,34.1017706 L0.25,34 L0.25,27.4589286 C0.25,26.1570446 1.25583432,25.0886293 2.53093052,25.0052391 L2.69166667,25 L4.181,25 L4.24748463,24.9847037 C4.60822124,24.8740909 4.87140776,24.551615 4.91146797,24.1603662 L4.91666667,24.0410714 L4.91666667,16.8517857 C4.91666667,15.5494935 5.92235261,14.4814538 7.19757938,14.3980943 L7.35833333,14.3928571 L8.416,14.392 L8.41666667,11.4892857 C8.41666667,8.48878053 9.57683207,5.76387164 11.4981209,3.36686773 C12.1648963,2.5349974 12.8783809,1.80197938 13.5928927,1.17280794 C14.0254499,0.791914888 14.3666308,0.527263428 14.5711261,0.384721902 C14.8288286,0.205092699 15.1711714,0.205092699 15.4288739,0.384721902 Z M20.8333333,31.2142857 C20.6252677,31.2142857 20.4369909,31.12956 20.3011215,30.9927274 C19.3641661,31.4124287 18.6948381,32.3362622 18.6301415,33.4262497 L18.625,33.6 L18.625,35.25 L24.25,35.25 L24.25,34.744 L24.2315628,34.7431534 C23.8654872,34.693491 23.5833333,34.3796958 23.5833333,34 C23.5833333,33.6213609 23.863919,33.3082561 24.2285084,33.2572674 C24.0758969,31.9567382 23.0578136,30.9269669 21.7770275,30.7705863 L21.6086041,30.7551961 L21.525613,30.753322 C21.4124486,31.0240494 21.145107,31.2142857 20.8333333,31.2142857 Z M9.16666667,31.2142857 C8.92839799,31.2142857 8.71608015,31.1031769 8.5786987,30.9299449 C7.56249345,31.3140819 6.82329841,32.2779645 6.75514153,33.4262497 L6.75,33.6 L6.75,35.25 L12.375,35.25 L12.375698,34.6914687 C12.1059981,34.5778419 11.9166667,34.3110313 11.9166667,34 C11.9166667,33.6953604 12.0982966,33.4331427 12.3591737,33.3157295 C12.2313906,31.9878384 11.2020319,30.9293134 9.90202751,30.7705863 L9.85323869,30.7666127 C9.73697692,31.0302549 9.47331314,31.2142857 9.16666667,31.2142857 Z M22.6416667,15.8928571 L21.583,15.892 L21.583,29.253 L21.6465565,29.2550217 C23.8168442,29.3595161 25.565031,31.0822836 25.7362388,33.2501115 L28.25,33.25 L28.2492666,27.4243116 C28.2325002,26.9312758 27.8544583,26.5407194 27.3648527,26.5024613 L27.25,26.5 L25.7333333,26.5 L25.6031294,26.4886115 C24.4741262,26.2895885 23.6441763,25.3298361 23.5862984,24.2031048 L23.5833333,24.0410714 L23.5833333,16.8517857 C23.5833333,16.3584599 23.2182281,15.9544793 22.7511455,15.8992848 L22.6416667,15.8928571 Z M15,1.944 L14.7252477,2.1757504 L14.5841906,2.29856482 C13.931515,2.87328569 13.277812,3.54488541 12.6685457,4.30500727 C11.0223897,6.35875495 10.0115012,8.65066154 9.92300344,11.1333267 L9.91666667,11.4892857 L9.91647396,29.2644438 C12.0192244,29.4367704 13.6938587,31.1307497 13.8612388,33.2501115 L17.1387612,33.2501115 C17.2785345,31.4803055 18.4693682,30.0071334 20.0828584,29.4689751 L20.0833333,11.4892857 C20.0833333,8.8694784 19.0559987,6.45655246 17.3314543,4.30500727 C16.722188,3.54488541 16.068485,2.87328569 15.4158094,2.29856482 L15.1427557,2.06344735 L15,1.944 Z M8.41593095,29.4054449 L8.416,15.892 L7.35833333,15.8928571 C6.8768018,15.8928571 6.47759584,16.2613906 6.42302321,16.7396005 L6.41666667,16.8517857 L6.41658688,24.0301316 C6.4333883,25.1818618 5.65552049,26.1849191 4.55607133,26.4550677 L4.39687062,26.4886115 L4.26666667,26.5 L2.69166667,26.5 C2.21035973,26.5 1.81096125,26.8688319 1.75635998,27.3468073 L1.75,27.4589286 L1.75,33.25 L5.2637612,33.2501115 C5.40947803,31.4050492 6.69754272,29.8823843 8.41593095,29.4054449 Z M15.5,9.25 C17.2948386,9.25 18.75,10.7051614 18.75,12.5 C18.75,14.2948386 17.2948386,15.75 15.5,15.75 C13.7051614,15.75 12.25,14.2948386 12.25,12.5 C12.25,10.7051614 13.7051614,9.25 15.5,9.25 Z M15.5,10.75 C14.5335886,10.75 13.75,11.5335886 13.75,12.5 C13.75,13.4664114 14.5335886,14.25 15.5,14.25 C16.4664114,14.25 17.25,13.4664114 17.25,12.5 C17.25,11.5335886 16.4664114,10.75 15.5,10.75 Z"
            id="Combined-Shape"
        ></path>
    </symbol>

    <symbol id="close" viewBox="0 0 34 33">
        <path
            d="M33.553587,0.2778125 C33.9401087,0.648229167 33.9401087,1.2490625 33.553587,1.61947917 L1.69293478,32.1555208 C1.49663043,32.3407292 1.24097826,32.4355208 0.991413043,32.4355208 C0.73576087,32.4355208 0.486195652,32.3407292 0.289891304,32.1555208 C-0.0966304348,31.7865625 -0.0966304348,31.1842708 0.289891304,30.8153125 L32.1566304,0.2778125 C32.5431522,-0.0926041667 33.1670652,-0.0926041667 33.553587,0.2778125 Z M20.9342609,18.7181458 L33.5357826,30.7946042 C33.9223043,31.1650208 33.9223043,31.7658542 33.5357826,32.1362708 C33.3455652,32.3214792 33.089913,32.4148125 32.8342609,32.4148125 C32.5846957,32.4148125 32.3290435,32.3214792 32.1388261,32.1362708 L19.5312174,20.0598125 C19.1446957,19.6893958 19.1446957,19.0885625 19.5312174,18.7181458 C19.9177391,18.3477292 20.5477391,18.3477292 20.9342609,18.7181458 Z M1.69232609,0.277958333 L14.2999348,12.3573333 C14.6864565,12.72775 14.6864565,13.3285833 14.2999348,13.699 C14.1036304,13.8842083 13.8479783,13.979 13.598413,13.979 C13.598413,13.979 13.0931957,13.8842083 12.8968913,13.699 L0.295369565,1.619625 C-0.0911521739,1.24920833 -0.0911521739,0.648375 0.295369565,0.277958333 C0.681891304,-0.0924583333 1.30580435,-0.0924583333 1.69232609,0.277958333 Z"
            id="Icons-/-Search-cross"
        ></path>
    </symbol>

    <symbol id="search" viewBox="0 0 20 21">
        <path
            d="M7,8.8817842e-16 C10.8661538,8.8817842e-16 14,3.13384615 14,7 C14,10.8661538 10.8661538,14 7,14 C3.13384615,14 8.8817842e-16,10.8661538 8.8817842e-16,7 C8.8817842e-16,3.13384615 3.13384615,8.8817842e-16 7,8.8817842e-16 Z M7,1 C3.68615384,1 1,3.68615384 1,7 C1,10.3138461 3.68615384,13 7,13 C10.3138461,13 13,10.3138461 13,7 C13,3.68615384 10.3138461,1 7,1 Z"
            id="Combined-Shape"
            fill-rule="nonzero"
        ></path>
        <rect id="Rectangle" transform="translate(15.085786, 15.585786) rotate(45.000000) translate(-15.085786, -15.585786) " x="9.58578644" y="14.5857864" width="11" height="2"></rect>
    </symbol>

    <symbol id="security" viewBox="0 0 50 50">
        <g id="Group" transform="translate(4.000000, 1.000000)">
            <path
                d="M17.3964497,0.353852936 C11.5983837,0.353852936 6.8964497,5.03179745 6.8964497,10.8053835 L6.8964497,16.3538529 C6.8964497,16.9061377 7.34416495,17.3538529 7.8964497,17.3538529 L26.8964497,17.3538529 C27.4487345,17.3538529 27.8964497,16.9061377 27.8964497,16.3538529 L27.8964497,10.8053835 C27.8964497,5.03179745 23.1945157,0.353852936 17.3964497,0.353852936 Z M17.6516815,2.35758902 C22.2293075,2.49177395 25.8964497,6.22351297 25.8964497,10.8053835 L25.896,15.353 L8.896,15.353 L8.8964497,10.8053835 C8.8964497,6.13866352 12.7006696,2.35385294 17.3964497,2.35385294 L17.6516815,2.35758902 Z"
                id="Stroke-1"
            ></path>
            <path
                d="M32.8964497,15.3538529 L1.8964497,15.3538529 C1.34416495,15.3538529 0.896449704,15.8015682 0.896449704,16.3538529 L0.896449704,38.3538529 C0.896449704,38.9061377 1.34416495,39.3538529 1.8964497,39.3538529 L24.0414692,39.3538529 L24.1580904,27.8776625 L33.8964497,27.8776625 L33.8964497,16.3538529 C33.8964497,15.8015682 33.4487345,15.3538529 32.8964497,15.3538529 Z M31.896,17.353 L31.896,26.877 L24.0414692,26.8776625 L23.9248481,26.8843902 C23.4275094,26.9421553 23.0414692,27.3648266 23.0414692,27.8776625 L23.041,37.353 L2.896,37.353 L2.896,17.353 L31.896,17.353 Z"
                id="Stroke-3"
            ></path>
            <rect id="Rectangle" x="17" y="24" width="2" height="6"></rect>
        </g>
        <g id="Group-5" transform="translate(26.000000, 27.000000)">
            <path
                d="M17.8964497,-0.0813105243 L0.896449704,-0.0813105243 C0.344164954,-0.0813105243 -0.103550296,0.366404726 -0.103550296,0.918689476 L-0.103550296,7.92493948 C0.0450992848,13.6509455 3.63526144,18.7166412 9.02883803,20.8486689 C9.26502105,20.9420297 9.52787835,20.9420297 9.76406138,20.8486689 C15.157638,18.7166412 18.7478001,13.6509455 18.8961114,7.95095021 L18.8964497,0.918689476 C18.8964497,0.366404726 18.4487345,-0.0813105243 17.8964497,-0.0813105243 Z M16.896,1.918 L16.8964497,7.92493948 L16.8843363,8.23491034 C16.6480859,12.7704229 13.8427005,16.8214725 9.61416943,18.7404075 L9.396,18.835 L9.17872995,18.7404055 C4.85409528,16.7778133 2.01801674,12.5840761 1.896,7.89892874 L1.896,1.918 L16.896,1.918 Z"
                id="Stroke-1"
            ></path>
            <path
                d="M13.1371931,6.2678981 C13.4966153,5.84857226 14.1279152,5.80001072 14.5472411,6.15943287 C14.9343111,6.49120717 15.0054636,7.05464068 14.7314245,7.46917073 L14.6557063,7.56948085 L9.51284916,13.5694808 C9.11887471,14.0291177 8.42010001,14.0305882 8.02144588,13.6001324 L7.94083413,13.5012903 L5.08369128,9.51542763 C4.76192972,9.06655354 4.86497478,8.44182992 5.31384887,8.12006836 C5.72819418,7.82305769 6.29237578,7.88801243 6.62979538,8.25281455 L6.70920813,8.35022595 L8.823,11.3 L13.1371931,6.2678981 Z"
                id="Stroke-3"
            ></path>
        </g>
    </symbol>

    <symbol id="tools" viewBox="0 0 64 64">
        <path
            d="M51,0 C52.5971317,0 53.9036217,1.24944951 53.9949052,2.82378395 L54,3 L54,35.552 L56.1853042,34.2425071 C56.5955576,33.9963551 57.1104589,34.0789197 57.4254901,34.4116317 L57.4999077,34.4999756 L57.56494,34.5984696 L61.56494,41.4984696 C61.8264752,41.9496178 61.6955106,42.5185567 61.2812183,42.8137328 L61.1806326,42.8768124 L58.694,44.24 L58.7277739,44.5086079 C58.7513771,44.7299184 58.7692474,44.9517059 58.7813635,45.1736179 L58.7952192,45.5065349 L58.7997839,46.0056817 C58.7980392,46.3127392 58.7854125,46.6189983 58.7619034,46.9238658 L58.7184781,47.3800492 L58.693,47.566 L61.4876214,49.1270565 C61.9036558,49.3595464 62.0886567,49.8446578 61.9593023,50.2825285 L61.9203665,50.3908385 L61.8680431,50.4961389 L57.8680431,57.4961389 C57.6064778,57.9538784 57.0401826,58.1243774 56.5751371,57.9054735 L56.4698011,57.8479983 L53.849,56.21 L53.467466,56.4812398 C52.9850118,56.8129387 52.4884745,57.123405 51.9792576,57.4117763 L51.4658661,57.6927507 L50.999,57.93 L50.9998,61 C50.9998,61.4733869 50.6708663,61.8699473 50.2290908,61.9735893 L50.1164211,61.9932723 L49.9998,62 L41.9998,62 C41.4869642,62 41.0642928,61.6139598 41.0065277,61.1166211 L40.9998,61 L40.999,58.035 L40.7652504,57.9506462 C39.9259954,57.6274241 39.1386577,57.18457 38.4275429,56.6363937 L38.1275171,56.3950544 L37.942,56.233 L35.1876214,57.7729435 C34.781821,57.9997143 34.2850425,57.9136623 33.9772594,57.5916456 L33.8982148,57.4980302 L33.83466,57.4015304 L29.83466,50.5015304 C29.7430184,50.3434487 29.6995228,50.1707174 29.699632,50.0003032 L3,50 C1.40286828,50 0.0963783463,48.7505505 0.00509479479,47.1762161 L0,47 L0,3 C0,1.40286828 1.24944951,0.0963783463 2.82378395,0.00509479479 L3,0 L51,0 Z M48.999,32 L42.999,32 L42.9996366,32.972776 C42.9998784,32.9818212 43,32.9908964 43,33 L42.998,33.027 L42.9998,34.7 C42.9998,35.0854049 42.7796581,35.4284434 42.4467753,35.5946619 L42.331786,35.6433347 L42.2207473,35.6752857 C40.9664534,35.9594413 39.8163593,36.5950374 38.9079225,37.5060896 C38.6164629,37.7983883 38.1792325,37.8788199 37.8071304,37.7197294 L37.6976645,37.6647889 L35.459,36.364 L32.375,41.629 L34.4928126,42.8299778 C34.7901956,42.9984949 34.9756454,43.3032701 34.9976494,43.6334581 L34.9981388,43.7582533 L34.9827015,43.8841319 C34.8528266,44.5774081 34.7914964,45.2828202 34.7997748,45.9928979 C34.8043867,46.6422615 34.8654997,47.2862456 34.9829122,47.9169964 C35.0527998,48.2924388 34.9025904,48.6707866 34.6037753,48.8970476 L34.4987644,48.9666225 L33.2004554,49.7136966 C33.0821295,49.8298408 32.9350475,49.9167898 32.7708729,49.9628803 L32.067,50.366 L35.07,55.547 L37.6119786,54.1270565 C37.9337275,53.9472557 38.3208458,53.9617983 38.6237361,54.1481323 L38.7330795,54.2260162 L38.8232883,54.3096634 C39.757338,55.2885685 40.9447986,55.988831 42.2539414,56.3328329 C42.6534741,56.4378177 42.9429958,56.775691 42.9923342,57.1776564 L42.9998,57.3 L42.999,60 L48.999,60 L48.9998,57.3 C48.9998,56.995423 49.1380733,56.7126452 49.3671485,56.5255116 L49.4707445,56.4513825 L49.5846287,56.3902567 C50.8653795,55.8057721 52.0739618,55.0741928 53.1864189,54.2102129 C53.4808331,53.9815588 53.8742655,53.937788 54.2078292,54.0869897 L54.3297989,54.1520017 L56.647,55.601 L59.63,50.38 L57.1119786,48.9729435 C56.812004,48.8053106 56.6244805,48.4994027 56.6020189,48.1675883 L56.6014358,48.042163 L56.6169439,47.9156258 C56.7351083,47.2857185 56.7961323,46.6426723 56.7998538,45.9896244 C56.8071832,45.2832528 56.7457781,44.5769786 56.6166645,43.8828788 C56.5455735,43.5007017 56.7025504,43.1163174 57.0107418,42.8918608 L57.1189674,42.8231876 L59.32,41.615 L56.343,36.479 L54.2142958,37.7574929 C53.9402257,37.9219349 53.6096113,37.9429492 53.3229228,37.8263202 L53.2030386,37.767926 L53.0902906,37.6927788 C52.9060033,37.5510938 52.7189972,37.4132742 52.5293802,37.2793845 C52.4580276,37.2442611 52.393275,37.1988229 52.3347072,37.1465962 C51.4715331,36.552039 50.5542899,36.0397853 49.5944345,35.6141547 C49.2730621,35.4716479 49.0531837,35.1726816 49.0082894,34.830235 L48.9998,34.7 L48.999,32 Z M45.7998,40 C49.1140847,40 51.7998,42.6857153 51.7998,46 C51.7998,49.3142847 49.1140847,52 45.7998,52 C42.4862008,52 39.7998,49.3139703 39.7998,46 C39.7998,42.6860297 42.4862008,40 45.7998,40 Z M45.7998,42 C43.5907084,42 41.7998,43.790661 41.7998,46 C41.7998,48.209339 43.5907084,50 45.7998,50 C48.0095153,50 49.7998,48.2097153 49.7998,46 C49.7998,43.7902847 48.0095153,42 45.7998,42 Z M40.819,34 L2,34 L2,47 C2,47.512307 2.38653124,47.9354316 2.8834841,47.9932642 L3,48 L32.168,48 L32.907,47.575 L32.8818183,47.380117 L32.8384527,46.9251887 L32.8111354,46.4688198 L32.7998681,46.0116724 C32.7959608,45.6769432 32.8052539,45.3422526 32.8276724,45.0084928 L32.8711347,44.5086628 L32.906,44.23 L30.5067874,42.8700222 C30.0907595,42.634273 29.9090313,42.1458181 30.0431558,41.7079256 L30.0833144,41.5996813 L30.1369166,41.4945969 L34.2369166,34.4945969 C34.4954125,34.0532625 35.0401097,33.8831906 35.4979834,34.0825919 L35.6019355,34.1352111 L38.067,35.567 L38.2331514,35.4300571 C38.912255,34.8880141 39.6676857,34.4496926 40.4738757,34.1292366 L40.819,34 Z M10,39 C11.1044757,39 12,39.8949058 12,41 C12,42.1050942 11.1044757,43 10,43 C8.8955243,43 8,42.1050942 8,41 C8,39.8949058 8.8955243,39 10,39 Z M52,18 L2,18 L2,32 L40.999,32 L40.9998,31 C40.9998,30.5266131 41.3287337,30.1300527 41.7705092,30.0264107 L41.8831789,30.0067277 L41.9998,30 L49.9998,30 C50.5126358,30 50.9353072,30.3860402 50.9930723,30.8833789 L50.9998,31 L50.999,34.062 L51.4318476,34.2781719 C51.6232379,34.3770626 51.8128954,34.4791572 52.00075,34.5844137 L52,18 Z M10,23 C11.1042847,23 12,23.8957153 12,25 C12,26.1042847 11.1042847,27 10,27 C8.89571525,27 8,26.1042847 8,25 C8,23.8957153 8.89571525,23 10,23 Z M45,24 C45.5522847,24 46,24.4477153 46,25 C46,25.5128358 45.6139598,25.9355072 45.1166211,25.9932723 L45,26 L29,26 C28.4477153,26 28,25.5522847 28,25 C28,24.4871642 28.3860402,24.0644928 28.8833789,24.0067277 L29,24 L45,24 Z M51,2 L3,2 C2.48769298,2 2.06456839,2.38653124 2.00673583,2.8834841 L2,3 L2,16 L52,16 L52,3 C52,2.48769298 51.6134688,2.06456839 51.1165159,2.00673583 L51,2 Z M10,7 C11.1042847,7 12,7.89571525 12,9 C12,10.1042847 11.1042847,11 10,11 C8.89571525,11 8,10.1042847 8,9 C8,7.89571525 8.89571525,7 10,7 Z M45,8 C45.5522847,8 46,8.44771525 46,9 C46,9.51283584 45.6139598,9.93550716 45.1166211,9.99327227 L45,10 L29,10 C28.4477153,10 28,9.55228475 28,9 C28,8.48716416 28.3860402,8.06449284 28.8833789,8.00672773 L29,8 L45,8 Z"
            id="Combined-Shape"
        ></path>
    </symbol>

    <symbol id="twitter" viewBox="0 0 30 30">
        <path
            d="M14.469,-2.66453526e-14 C22.460008,-2.66453526e-14 28.938,6.47799196 28.938,14.469 C28.938,22.460008 22.460008,28.938 14.469,28.938 C6.47799196,28.938 2.57571742e-13,22.460008 2.57571742e-13,14.469 C2.57571742e-13,6.47799196 6.47799196,-2.66453526e-14 14.469,-2.66453526e-14 Z M14.469,2 C7.58256145,2 2,7.58256145 2,14.469 C2,21.3554385 7.58256145,26.938 14.469,26.938 C21.3554385,26.938 26.938,21.3554385 26.938,14.469 C26.938,7.58256145 21.3554385,2 14.469,2 Z M17.776,9.288 C18.5994672,9.28875668 19.3852686,9.63308848 19.944,10.238 C20.6113073,10.105217 21.2506914,9.85825917 21.834,9.508 C21.6135207,10.2025976 21.1483755,10.7935347 20.525,11.171 C21.1152602,11.1004198 21.6914463,10.9409488 22.234,10.698 C21.8370232,11.3007554 21.3358641,11.8279884 20.754,12.255 C20.8854712,14.580912 20.0531437,16.8582904 18.4528576,18.5512865 C16.8525714,20.2442825 14.6256247,21.2034122 12.296,21.2030011 C10.676461,21.2038435 9.09156039,20.7341404 7.734,19.851 C9.31005306,20.041775 10.8968607,19.593392 12.14,18.606 C10.8612105,18.5779584 9.74273537,17.7374928 9.36,16.517 C9.80596166,16.603571 10.2658815,16.5861187 10.704,16.466 C9.29432802,16.1719676 8.29242156,14.9178007 8.317,13.478 C8.72953395,13.7099712 9.19195818,13.838956 9.665,13.854 C8.35544613,12.9618724 7.95405414,11.2116115 8.744,9.838 C10.2460438,11.7124558 12.4772271,12.8560646 14.876,12.981 C14.664788,12.0914721 14.8707309,11.1541796 15.4353824,10.4351252 C16.0000338,9.71607081 16.8617585,9.29374374 17.776,9.288 Z"
            id="Combined-Shape"
        ></path>
    </symbol>

    <symbol id="facehappy"  viewBox="0 0 64 64">
      <path data-name="layer1"
  d="M32 2a30 30 0 1 0 30 30A30 30 0 0 0 32 2zm10 20a4 4 0 1 1-4 4 4 4 0 0 1 4-4zm-20 0a4 4 0 1 1-4 4 4 4 0 0 1 4-4zm27.7 19.9a20.5 20.5 0 0 1-35.5-.3 2 2 0 1 1 3.5-2 16.5 16.5 0 0 0 28.5.2 2 2 0 1 1 3.4 2z"></path>
    </symbol>
    <symbol id="facesad"  viewBox="0 0 64 64">
      <path data-name="layer1"
  d="M32 2a30 30 0 1 0 30 30A30 30 0 0 0 32 2zm10 20a4 4 0 1 1-4 4 4 4 0 0 1 4-4zm-20 0a4 4 0 1 1-4 4 4 4 0 0 1 4-4zm25.2 27.7a2 2 0 0 1-2.8-.2 16.5 16.5 0 0 0-24.7 0 2 2 0 1 1-3-2.7 20.5 20.5 0 0 1 30.7 0 2 2 0 0 1-.2 2.9z"></path>
    </symbol>

    <symbol id="tagcount" viewBox="0 0 35 25">
        <path d="M21.5,0 C20.5860474,0 19.683401,0.0909659033 18.8012983,0.270121272 L13.9751572,1.25031222 L18.8013759,2.23012109 C24.118071,3.30950545 28,8.00625323 28,13.5 C28,18.99367 24.1181409,23.6904989 18.8016666,24.7700922 L13.9740586,25.7504134 L18.8017924,26.730115 C19.6837177,26.9090859 20.5863076,27 21.5,27 C28.9558441,27 35,20.9558441 35,13.5 C35,6.04415588 28.9558441,0 21.5,0 Z M24.003,2.273 L24.0585822,2.28565264 C29.1783662,3.44885566 33,8.02813263 33,13.5 L32.9963585,13.7922675 C32.8656135,19.0335302 29.2281411,23.4041375 24.3418529,24.6461783 L24.003,24.726 L24.0354469,24.7052815 C27.6599019,22.2630534 30,18.1220788 30,13.5 C30,8.99948054 27.7813895,4.95515717 24.3187214,2.4910575 L24.003,2.273 Z" id="Combined-Shape"></path>
        <path d="M17.5,0 L13.5,0 C6.04415588,0 0,6.04415588 0,13.5 C0,20.9558441 6.04415588,27 13.5,27 L17.5,27 C24.9558441,27 31,20.9558441 31,13.5 C31,6.04415588 24.9558441,0 17.5,0 Z M13.5,2 L17.5,2 C23.8512746,2 29,7.14872538 29,13.5 C29,19.8512746 23.8512746,25 17.5,25 L13.5,25 C7.14872538,25 2,19.8512746 2,13.5 C2,7.14872538 7.14872538,2 13.5,2 Z" id="Rectangle"></path>

    </symbol>

    <symbol id="user" viewBox="0 0 20 24">
        <path
            d="M12.0220807,12.5004278 C15.897575,12.5004278 19.2152331,15.2896093 19.9198684,19.1063841 L19.9198684,19.1063841 L19.9492282,19.2238233 C20.3015459,21.1909303 18.774836,23.0112382 16.7783692,23.0112382 L16.7783692,23.0112382 L3.21413896,23.0112382 C1.24703198,23.0112382 -0.279677914,21.2496499 0.0432799484,19.2825429 L0.0432799484,19.2825429 L0.0892130109,19.0293544 C0.835009566,15.2539502 4.12237817,12.5004278 7.99978729,12.5004278 L7.99978729,12.5004278 Z M5.57234253,2.09207202 C7.96050675,-0.712622532 12.3392942,-0.706378717 14.7231828,2.16577619 L14.7231828,2.16577619 L14.8805012,2.36589622 C16.5000037,4.52769032 16.2472236,7.53862062 14.2827857,9.41764819 L14.2827857,9.41764819 L14.2240661,9.4763678 C11.8752816,11.707713 8.17594612,11.6489934 5.88588128,9.35892858 L5.88588128,9.35892858 L5.85652147,9.32956877 C3.9481341,7.4211814 3.77197527,4.39712142 5.41612439,2.28321541 L5.41612439,2.28321541 Z"
            id="Graphics-/-User"
            fill-rule="nonzero"
        ></path>
    </symbol>

    <symbol id="webhook" viewBox="0 0 50 50">
        <g id="Group-9" transform="translate(25.000000, 25.500000) rotate(-360.000000) translate(-25.000000, -25.500000) translate(1.000000, 3.000000)">
            <g id="Group-8" transform="translate(24.000000, 22.500000) rotate(-90.000000) translate(-24.000000, -22.500000) translate(2.000000, -1.000000)">
                <path
                    d="M8.85365854,0 C13.5540581,0 17.3658537,3.80534475 17.3658537,8.5 C17.3658537,9.74956951 17.0958044,10.9361352 16.6108281,12.0047097 L28.2440409,18.1266115 C29.8012532,16.1206697 32.2376832,14.8295455 34.9756098,14.8295455 C39.6760093,14.8295455 43.4878049,18.6348902 43.4878049,23.3295455 C43.4878049,28.0242007 39.6760093,31.8295455 34.9756098,31.8295455 C32.5195765,31.8295455 30.3061523,30.7905995 28.7523562,29.1287054 L17.0258319,35.7731533 C17.2471581,36.5301202 17.3658537,37.3307761 17.3658537,38.1590909 C17.3658537,42.8532397 13.5538141,46.6590909 8.85365854,46.6590909 C4.15350301,46.6590909 0.341463415,42.8532397 0.341463415,38.1590909 C0.341463415,34.0402519 3.27636354,30.6053158 7.1709236,29.8252195 L7.17085452,16.8338915 C3.27617567,16.053884 0.341463415,12.6192834 0.341463415,8.5 C0.341463415,3.80534475 4.153259,0 8.85365854,0 Z M8.85365854,31.6590909 C5.25734577,31.6590909 2.34146341,34.5702397 2.34146341,38.1590909 C2.34146341,41.7479421 5.25734577,44.6590909 8.85365854,44.6590909 C12.4499713,44.6590909 15.3658537,41.7479421 15.3658537,38.1590909 C15.3658537,34.5702397 12.4499713,31.6590909 8.85365854,31.6590909 Z M15.5727805,13.7189283 C14.0757025,15.6379869 11.7722689,16.8989094 9.17122842,16.9941926 L9.1712126,29.664899 C12.1935281,29.7756343 14.8141867,31.4605186 16.2347299,33.9228327 L27.5602687,27.5061559 C26.8619774,26.2726673 26.4634146,24.8475997 26.4634146,23.3295455 C26.4634146,22.0869916 26.7304401,20.9067361 27.2102918,19.8428453 Z M34.9756098,16.8295455 C31.3790221,16.8295455 28.4634146,19.7402187 28.4634146,23.3295455 C28.4634146,26.9188722 31.3790221,29.8295455 34.9756098,29.8295455 C38.5721974,29.8295455 41.4878049,26.9188722 41.4878049,23.3295455 C41.4878049,19.7402187 38.5721974,16.8295455 34.9756098,16.8295455 Z M8.85365854,2 C5.25707088,2 2.34146341,4.91067328 2.34146341,8.5 C2.34146341,12.0893267 5.25707088,15 8.85365854,15 C12.4502462,15 15.3658537,12.0893267 15.3658537,8.5 C15.3658537,4.91067328 12.4502462,2 8.85365854,2 Z"
                    id="Combined-Shape"
                ></path>
            </g>
        </g>
    </symbol>
</svg>